<svg width="32" height="32" viewBox="0 0 32 32" fill="none" xmlns="http://www.w3.org/2000/svg">
<path d="M1.5 6H30.5C30.8978 6 31.2794 6.15804 31.5607 6.43934C31.842 6.72064 32 7.10218 32 7.5C32 7.89782 31.842 8.27936 31.5607 8.56066C31.2794 8.84196 30.8978 9 30.5 9H1.5C1.10218 9 0.720644 8.84196 0.43934 8.56066C0.158035 8.27936 0 7.89782 0 7.5C0 7.10218 0.158035 6.72064 0.43934 6.43934C0.720644 6.15804 1.10218 6 1.5 6ZM6 15.5C6 15.1022 6.15804 14.7206 6.43934 14.4393C6.72064 14.158 7.10218 14 7.5 14H24.5C24.8978 14 25.2794 14.158 25.5607 14.4393C25.842 14.7206 26 15.1022 26 15.5C26 15.8978 25.842 16.2794 25.5607 16.5607C25.2794 16.842 24.8978 17 24.5 17H7.5C7.10218 17 6.72064 16.842 6.43934 16.5607C6.15804 16.2794 6 15.8978 6 15.5ZM12 23.5C12 23.1022 12.158 22.7206 12.4393 22.4393C12.7206 22.158 13.1022 22 13.5 22H18.5C18.8978 22 19.2794 22.158 19.5607 22.4393C19.842 22.7206 20 23.1022 20 23.5C20 23.8978 19.842 24.2794 19.5607 24.5607C19.2794 24.842 18.8978 25 18.5 25H13.5C13.1022 25 12.7206 24.842 12.4393 24.5607C12.158 24.2794 12 23.8978 12 23.5Z" fill="#978F72"/>
</svg>
