<svg width="24" height="24" viewBox="0 0 24 24" fill="none" xmlns="http://www.w3.org/2000/svg">
<path d="M21.6584 9.6587C21.6584 9.46652 21.6205 9.27623 21.547 9.09868C21.4734 8.92113 21.3657 8.75981 21.2298 8.62392C21.0939 8.48803 20.9326 8.38024 20.755 8.3067C20.5775 8.23315 20.3872 8.1953 20.195 8.1953C20.0028 8.1953 19.8125 8.23315 19.635 8.3067C19.4574 8.38024 19.2961 8.48803 19.1602 8.62392C19.0243 8.75981 18.9165 8.92113 18.843 9.09868C18.7695 9.27623 18.7316 9.46652 18.7316 9.6587H21.6584ZM5.2684 9.6587C5.2684 9.27058 5.11422 8.89836 4.83978 8.62392C4.56534 8.34948 4.19313 8.1953 3.80501 8.1953C3.41689 8.1953 3.04468 8.34948 2.77024 8.62392C2.4958 8.89836 2.34162 9.27058 2.34162 9.6587H5.2684ZM21.5015 13.0351C21.776 13.3095 22.1483 13.4637 22.5364 13.4637C22.9246 13.4637 23.2969 13.3095 23.5713 13.0351C23.8458 12.7606 24 12.3883 24 12.0001C24 11.612 23.8458 11.2397 23.5713 10.9652L21.5015 13.0351ZM12 1.46367L13.0349 0.428756C12.899 0.292826 12.7377 0.184998 12.5601 0.111431C12.3825 0.0378646 12.1922 0 12 0C11.8078 0 11.6175 0.0378646 11.4399 0.111431C11.2623 0.184998 11.101 0.292826 10.9651 0.428756L12 1.46367ZM0.428674 10.9652C0.154198 11.2397 0 11.612 0 12.0001C0 12.3883 0.154198 12.7606 0.428674 13.0351C0.703149 13.3095 1.07542 13.4637 1.46358 13.4637C1.85175 13.4637 2.22402 13.3095 2.49849 13.0351L0.428674 10.9652ZM6.14644 24H17.8536V21.0732H6.14644V24ZM21.6584 20.1952V9.6587H18.7316V20.1952H21.6584ZM5.2684 20.1952V9.6587H2.34162V20.1952H5.2684ZM23.5713 10.9652L13.0349 0.428756L10.9651 2.49859L21.5015 13.0351L23.5713 10.9652ZM10.9651 0.428756L0.428674 10.9652L2.49849 13.0351L13.0349 2.49859L10.9651 0.428756ZM17.8536 24C18.8627 24 19.8304 23.5991 20.544 22.8856C21.2575 22.172 21.6584 21.2043 21.6584 20.1952H18.7316C18.7316 20.428 18.6391 20.6514 18.4744 20.816C18.3098 20.9807 18.0864 21.0732 17.8536 21.0732V24ZM6.14644 21.0732C5.91357 21.0732 5.69023 20.9807 5.52557 20.816C5.36091 20.6514 5.2684 20.428 5.2684 20.1952H2.34162C2.34162 21.2043 2.74248 22.172 3.45602 22.8856C4.16957 23.5991 5.13734 24 6.14644 24V21.0732Z" fill="#806815"/>
</svg>
