<svg width="565" height="410" viewBox="0 0 565 410" fill="none" xmlns="http://www.w3.org/2000/svg">
<path d="M564.456 359.452H0.543762V359.727H564.456V359.452Z" fill="#E6E6E6"/>
<path d="M168.454 372.473H58.7957V372.748H168.454V372.473Z" fill="#E6E6E6"/>
<path d="M278.733 366.512H220.763V366.786H278.733V366.512Z" fill="#E6E6E6"/>
<path d="M405.805 369.674H372.929V369.948H405.805V369.674Z" fill="#E6E6E6"/>
<path d="M446.599 369.674H431.012V369.948H446.599V369.674Z" fill="#E6E6E6"/>
<path d="M197.383 372.473H179.372V372.748H197.383V372.473Z" fill="#E6E6E6"/>
<path d="M503.091 369.674H455.813V369.948H503.091V369.674Z" fill="#E6E6E6"/>
<path d="M267.838 310.486H50.0664C48.3604 310.483 46.7252 309.821 45.52 308.646C44.3147 307.471 43.6378 305.878 43.6378 304.217V6.21411C43.6526 4.5629 44.3361 2.98407 45.5398 1.82056C46.7434 0.657047 48.3701 0.00282862 50.0664 0H267.838C269.546 0 271.184 0.660483 272.392 1.83615C273.6 3.01182 274.278 4.60636 274.278 6.26901V304.217C274.278 305.88 273.6 307.474 272.392 308.65C271.184 309.826 269.546 310.486 267.838 310.486ZM50.0664 0.219581C48.4351 0.222489 46.8717 0.855335 45.7193 1.97921C44.5669 3.10309 43.9197 4.62616 43.9197 6.21411V304.217C43.9197 305.805 44.5669 307.328 45.7193 308.452C46.8717 309.576 48.4351 310.209 50.0664 310.212H267.838C269.47 310.209 271.035 309.576 272.189 308.453C273.343 307.329 273.993 305.806 273.996 304.217V6.21411C273.993 4.62515 273.343 3.10211 272.189 1.97854C271.035 0.854979 269.47 0.222483 267.838 0.219581H50.0664Z" fill="#E6E6E6"/>
<path d="M511.798 310.486H294.015C292.308 310.483 290.672 309.822 289.465 308.647C288.258 307.472 287.578 305.879 287.575 304.217V6.21411C287.593 4.5619 288.279 2.98308 289.484 1.81987C290.69 0.656663 292.318 0.00279777 294.015 0H511.798C513.492 0.00571401 515.116 0.661209 516.317 1.82441C517.519 2.98761 518.201 4.56479 518.215 6.21411V304.217C518.215 305.876 517.54 307.467 516.337 308.642C515.134 309.817 513.502 310.48 511.798 310.486ZM294.015 0.219581C292.383 0.222483 290.818 0.854979 289.664 1.97854C288.51 3.10211 287.86 4.62515 287.857 6.21411V304.217C287.86 305.806 288.51 307.329 289.664 308.453C290.818 309.576 292.383 310.209 294.015 310.212H511.798C513.43 310.209 514.995 309.576 516.149 308.453C517.303 307.329 517.953 305.806 517.956 304.217V6.21411C517.953 4.62515 517.303 3.10211 516.149 1.97854C514.995 0.854979 513.43 0.222483 511.798 0.219581H294.015Z" fill="#E6E6E6"/>
<path d="M397.707 209.82H318.68V359.452H397.707V209.82Z" fill="#F5F5F5"/>
<path d="M397.696 209.82H391.177V359.452H397.696V209.82Z" fill="#EBEBEB"/>
<path d="M142.819 246.413L324.771 246.413V214.09L142.819 214.09V246.413Z" fill="#EBEBEB"/>
<path d="M218.688 359.562H140.676C140.377 359.562 140.09 359.446 139.879 359.241C139.667 359.035 139.548 358.755 139.548 358.464C139.548 358.173 139.667 357.894 139.879 357.688C140.09 357.482 140.377 357.366 140.676 357.366H218.688C229.966 357.366 231.466 354.16 231.466 341.447V181.153C231.466 180.862 231.585 180.583 231.796 180.377C232.008 180.171 232.295 180.055 232.594 180.055C232.893 180.055 233.18 180.171 233.391 180.377C233.603 180.583 233.722 180.862 233.722 181.153V341.447C233.722 355.039 231.556 359.562 218.688 359.562Z" fill="#E6E6E6"/>
<path d="M151.582 221.04L397.696 221.04V209.82L151.582 209.82V221.04Z" fill="#EBEBEB"/>
<path d="M151.582 209.82H72.5552V359.452H151.582V209.82Z" fill="#F5F5F5"/>
<path d="M151.582 209.82H145.063V359.452H151.582V209.82Z" fill="#EBEBEB"/>
<path d="M487.426 20.4539H210.071V194.8H487.426V20.4539Z" fill="#D4E1FD"/>
<path d="M491.598 20.4539H212.022V194.8H491.598V20.4539Z" fill="#F0F0F0"/>
<path d="M487.426 194.8H210.071V198.72H487.426V194.8Z" fill="#E6E6E6"/>
<path d="M510.704 194.8H240.263V198.72H510.704V194.8Z" fill="#F5F5F5"/>
<path d="M485.745 187.412V27.8538L217.864 27.8538V187.412L485.745 187.412Z" fill="#FAFAFA"/>
<path d="M283.142 187.401L317.473 27.8538H361.267L326.936 187.401H283.142Z" fill="white"/>
<path d="M339.331 187.401L373.662 27.8538H393.985L359.654 187.401H339.331Z" fill="white"/>
<path d="M485.757 170.701V26.8437H485.012V170.701H485.757Z" fill="#D4E1FD"/>
<path d="M210.319 15.733H491.79C493.008 15.733 494.175 16.2038 495.036 17.0418C495.897 17.8798 496.381 19.0163 496.381 20.2014V181.779C470.441 181.779 361.256 158.12 351.793 134.679C342.117 158.12 231.612 181.779 205.684 181.779V20.2014C205.684 19.6109 205.804 19.0262 206.037 18.4812C206.271 17.9362 206.613 17.4416 207.044 17.0261C207.475 16.6106 207.986 16.2824 208.548 16.0604C209.111 15.8385 209.712 15.7272 210.319 15.733Z" fill="#EBEBEB"/>
<path d="M351.793 15.733C351.844 15.733 351.894 15.7426 351.94 15.7614C351.987 15.7802 352.029 15.8077 352.065 15.8423C352.1 15.877 352.128 15.9181 352.148 15.9634C352.167 16.0087 352.177 16.0573 352.177 16.1063V134.844C352.177 134.893 352.167 134.942 352.148 134.987C352.128 135.032 352.1 135.073 352.065 135.108C352.029 135.143 351.987 135.17 351.94 135.189C351.894 135.208 351.844 135.217 351.793 135.217C351.692 135.217 351.594 135.178 351.522 135.108C351.45 135.038 351.41 134.943 351.41 134.844V16.1063C351.41 16.0073 351.45 15.9123 351.522 15.8423C351.594 15.7723 351.692 15.733 351.793 15.733Z" fill="#F3F7FF"/>
<path d="M138.894 15.733H83.2469V96.6482H138.894V15.733Z" fill="#E0E0E0"/>
<path d="M146.958 15.733H84.6794V96.6482H146.958V15.733Z" fill="#F5F5F5"/>
<path d="M140.529 90.4011V21.9909L91.0967 21.9909V90.4011H140.529Z" fill="white"/>
<path d="M105.77 70.101V61.8448C105.77 56.6588 107.886 51.6853 111.653 48.0183C115.42 44.3513 120.529 42.2912 125.856 42.2912V50.5034C125.862 53.075 125.347 55.6223 124.34 57.9998C123.333 60.3772 121.855 62.538 119.989 64.3583C118.123 66.1787 115.907 67.6229 113.467 68.6083C111.027 69.5937 108.411 70.101 105.77 70.101Z" fill="#EBEBEB"/>
<path d="M223.312 209.82H206.27L210.409 177.519H227.462L223.312 209.82Z" fill="#E6E6E6"/>
<path d="M227.09 209.82H210.037L214.187 177.519H231.229L227.09 209.82Z" fill="#F5F5F5"/>
<path d="M263.654 209.82H251.327L248.958 206.164H261.285L263.654 209.82Z" fill="#E6E6E6"/>
<path d="M329.699 209.82H255.094L252.725 206.164H319.639L329.699 209.82Z" fill="#F5F5F5"/>
<path d="M169.255 200.553H174.635C175.886 200.552 177.125 200.791 178.281 201.256C179.437 201.721 180.488 202.403 181.373 203.264C182.258 204.124 182.96 205.146 183.439 206.271C183.918 207.396 184.165 208.602 184.165 209.82H159.725C159.725 208.602 159.971 207.396 160.451 206.271C160.93 205.146 161.632 204.124 162.517 203.264C163.402 202.403 164.453 201.721 165.609 201.256C166.765 200.791 168.004 200.552 169.255 200.553Z" fill="#F0F0F0"/>
<path d="M229.154 193.669H212.112L214.188 177.519H231.229L229.154 193.669Z" fill="#E6E6E6"/>
<path d="M166.514 189.805H287.113C287.35 189.805 287.585 189.756 287.802 189.661C288.018 189.566 288.211 189.427 288.368 189.254C288.525 189.08 288.642 188.876 288.712 188.655C288.781 188.434 288.801 188.201 288.771 187.971L279.477 115.598C279.428 115.204 279.232 114.841 278.926 114.578C278.621 114.315 278.227 114.17 277.819 114.171H157.221C156.985 114.17 156.751 114.219 156.535 114.314C156.32 114.408 156.127 114.546 155.97 114.718C155.814 114.891 155.696 115.093 155.626 115.313C155.556 115.533 155.534 115.765 155.563 115.993L164.856 188.378C164.906 188.772 165.102 189.134 165.407 189.397C165.713 189.66 166.107 189.805 166.514 189.805Z" fill="#E6E6E6"/>
<path d="M168.308 189.805H288.906C289.143 189.805 289.378 189.756 289.595 189.661C289.811 189.566 290.004 189.427 290.161 189.254C290.318 189.08 290.435 188.876 290.505 188.655C290.574 188.434 290.594 188.201 290.564 187.971L281.27 115.598C281.216 115.206 281.019 114.846 280.715 114.584C280.41 114.322 280.019 114.175 279.613 114.171H159.014C158.777 114.169 158.543 114.216 158.326 114.31C158.11 114.404 157.916 114.542 157.759 114.715C157.602 114.887 157.485 115.091 157.415 115.311C157.346 115.532 157.326 115.764 157.356 115.993L166.65 188.378C166.699 188.772 166.895 189.134 167.201 189.397C167.506 189.66 167.9 189.805 168.308 189.805Z" fill="#F5F5F5"/>
<path d="M286.673 185.798L277.989 118.057C277.972 117.947 277.915 117.846 277.828 117.773C277.741 117.7 277.63 117.661 277.515 117.662H161.71C161.643 117.66 161.577 117.672 161.515 117.697C161.454 117.722 161.399 117.76 161.354 117.808C161.309 117.856 161.275 117.913 161.255 117.975C161.234 118.037 161.228 118.102 161.236 118.167L169.943 185.918C169.954 186.029 170.008 186.131 170.094 186.205C170.18 186.278 170.291 186.317 170.405 186.314H286.211C286.277 186.312 286.342 186.298 286.402 186.271C286.462 186.243 286.516 186.204 286.56 186.156C286.603 186.107 286.636 186.05 286.655 185.988C286.675 185.927 286.681 185.862 286.673 185.798Z" fill="#EBEBEB"/>
<path d="M242.597 209.82H214.83V209.479C214.83 208.766 215.121 208.082 215.64 207.577C216.158 207.073 216.861 206.789 217.593 206.789H239.834C240.567 206.789 241.27 207.073 241.788 207.577C242.306 208.082 242.597 208.766 242.597 209.479V209.82Z" fill="#F5F5F5"/>
<path d="M218.044 209.82H199.21V209.479C199.21 208.766 199.501 208.082 200.019 207.577C200.537 207.073 201.24 206.789 201.973 206.789H215.281C216.014 206.789 216.717 207.073 217.235 207.577C217.753 208.082 218.044 208.766 218.044 209.479V209.82Z" fill="#E6E6E6"/>
<path d="M120.871 159.547C120.871 159.547 120.871 159.547 120.871 159.47C121.3 158.054 121.706 156.615 122.067 155.177C124.255 157.944 126.386 158.646 127.977 158.646H128.484C131.631 158.35 134.653 155.353 136.559 150.709C136.632 150.532 136.632 150.336 136.559 150.16C136.513 150.077 136.45 150.005 136.375 149.946C136.299 149.888 136.212 149.845 136.12 149.819C133.863 149.264 131.512 149.178 129.219 149.565C126.926 149.953 124.743 150.807 122.811 152.07C123.093 150.709 123.33 149.347 123.533 147.986C124.031 148.076 124.537 148.124 125.044 148.129C130.176 148.129 133.943 143.671 134.067 143.462C134.134 143.38 134.18 143.283 134.202 143.18C134.223 143.077 134.219 142.971 134.191 142.87C134.165 142.77 134.114 142.678 134.043 142.601C133.973 142.525 133.884 142.466 133.785 142.43C130.729 141.245 128.146 141.146 126.082 142.123C124.775 142.786 123.714 143.83 123.048 145.109C122.093 142.24 120.346 139.682 118 137.713C115.653 135.744 112.796 134.44 109.74 133.944C109.645 133.926 109.548 133.929 109.454 133.952C109.361 133.974 109.273 134.017 109.198 134.075C109.119 134.131 109.053 134.203 109.007 134.287C108.96 134.371 108.933 134.463 108.928 134.559C108.668 139.093 108.815 144.637 112.311 147.283C113.765 148.332 115.545 148.863 117.353 148.787C118.976 148.751 120.587 148.507 122.146 148.063C121.636 151.336 120.913 154.574 119.98 157.757C118.165 155.408 113.405 150.149 106.198 148.337C106.112 148.314 106.023 148.308 105.934 148.32C105.846 148.331 105.761 148.36 105.684 148.404C105.607 148.448 105.54 148.506 105.487 148.576C105.434 148.646 105.396 148.725 105.375 148.809C104.315 152.718 104.856 155.88 106.943 157.977C108.657 159.7 111.341 160.59 114.736 160.59C116.251 160.577 117.762 160.422 119.247 160.129C118.39 162.807 117.42 165.42 116.394 167.924C114.307 166.123 108.149 161.545 101.45 163.455C101.359 163.479 101.275 163.521 101.203 163.58C101.131 163.639 101.073 163.713 101.033 163.796C100.994 163.88 100.974 163.972 100.974 164.065C100.974 164.157 100.994 164.249 101.033 164.334C102.86 168.659 104.924 171.053 107.529 171.887C108.223 172.099 108.945 172.206 109.672 172.206C111.656 172.118 113.59 171.569 115.311 170.603C113.856 173.896 112.345 177.014 110.89 179.77C109.311 178.112 105.003 174.698 97.3562 176.279C97.1962 176.315 97.0548 176.406 96.9576 176.535C96.8604 176.663 96.8137 176.822 96.8261 176.981C96.9952 178.369 97.5352 179.689 98.392 180.811C99.2489 181.932 100.393 182.815 101.71 183.371C102.704 183.784 103.775 183.997 104.856 183.997C106.362 183.97 107.839 183.593 109.164 182.899C107.676 185.556 106.322 187.785 105.273 189.486H92.4389C90.4088 186.094 88.0629 181.878 85.7621 177.135C86.8306 177.45 87.9392 177.616 89.0554 177.629C90.4285 177.646 91.787 177.354 93.0258 176.778C94.2646 176.201 95.3503 175.354 96.1988 174.303C97.0473 173.252 97.6358 172.025 97.9186 170.717C98.2015 169.409 98.1711 168.055 97.8299 166.76C97.7857 166.611 97.6891 166.482 97.5572 166.396C97.4252 166.31 97.2662 166.271 97.108 166.288C94.4907 166.54 91.974 167.4 89.7698 168.797C87.5656 170.194 85.7385 172.086 84.4426 174.313C82.92 171.02 81.4764 167.517 80.1907 163.883C81.8191 164.796 83.6483 165.315 85.5253 165.399C86.2653 165.404 87.0011 165.289 87.702 165.058C91.4012 163.839 93.6231 159.426 95.484 154.837C95.5259 154.753 95.5476 154.661 95.5476 154.568C95.5476 154.475 95.5259 154.383 95.484 154.299C95.4442 154.216 95.3863 154.142 95.3142 154.083C95.2421 154.025 95.1576 153.982 95.0667 153.958C87.4651 151.894 81.3072 158.965 79.4012 161.49C78.3889 158.441 77.5493 155.34 76.8861 152.202C78.4707 152.492 80.0784 152.646 81.6907 152.663C85.5591 152.663 88.6042 151.642 90.5215 149.666C92.7772 147.316 93.3411 143.803 92.1118 139.499C92.0618 139.334 91.9483 139.194 91.795 139.108C91.6417 139.022 91.4603 138.997 91.2885 139.038C83.5177 141.102 78.4313 146.844 76.3786 149.556C76.2771 148.996 76.1869 148.458 76.0967 147.876C76.0724 147.736 76.0056 147.606 75.9049 147.503C75.6016 146.433 75.0757 145.436 74.3597 144.573C73.6438 143.71 72.7532 142.999 71.7433 142.485C69.4876 141.387 66.6455 141.596 63.2958 142.935C63.1965 142.972 63.1082 143.033 63.0392 143.111C62.9702 143.19 62.9227 143.284 62.9011 143.386C62.875 143.486 62.8737 143.591 62.8972 143.692C62.9207 143.793 62.9684 143.888 63.0364 143.968C63.2282 144.198 67.3786 148.963 72.95 148.963C73.549 148.959 74.146 148.897 74.732 148.776C74.9801 150.335 75.2846 151.894 75.623 153.453C73.477 152.072 71.0539 151.152 68.5143 150.752C65.9748 150.353 63.3771 150.484 60.8936 151.137C60.8012 151.16 60.7152 151.203 60.6412 151.262C60.5673 151.32 60.5072 151.394 60.465 151.477C60.4259 151.564 60.4056 151.657 60.4056 151.752C60.4056 151.846 60.4259 151.94 60.465 152.026C62.6304 157.131 65.9914 160.359 69.4876 160.634H69.9613C71.7207 160.634 74.0891 159.843 76.5027 156.692C77.4368 160.262 78.5662 163.78 79.8862 167.232C76.6155 165.739 69.2959 163.137 64.0966 167.089C63.9563 167.194 63.8635 167.348 63.8382 167.518C63.8129 167.688 63.8571 167.862 63.9613 168.001C67.3447 172.491 70.4801 174.676 73.5478 174.676H73.6267C76.1756 174.676 78.6004 173.117 81.0365 170.032C82.435 173.413 83.9238 176.619 85.4238 179.616C82.1644 177.651 78.5779 177.958 74.3598 180.55C74.2668 180.61 74.1904 180.691 74.1376 180.787C74.0848 180.883 74.0572 180.99 74.0572 181.098C74.0572 181.207 74.0848 181.314 74.1376 181.41C74.1904 181.506 74.2668 181.587 74.3598 181.647C74.5967 181.812 78.6343 184.601 82.8749 184.601C84.4852 184.634 86.0646 184.169 87.3862 183.272C88.4463 185.545 89.6418 187.653 90.7697 189.508H84.8937V192.725H87.014L88.7621 209.82H114.544L116.292 192.725H118.413V189.508H106.841C108.138 187.433 109.774 184.667 111.522 181.406C111.57 181.343 111.608 181.272 111.634 181.197C112.074 180.374 112.514 179.528 112.965 178.65C113.735 179.777 114.77 180.709 115.984 181.367C117.199 182.026 118.557 182.393 119.946 182.438C120.232 182.454 120.518 182.454 120.804 182.438C122.34 182.265 123.797 181.682 125.015 180.754C126.233 179.826 127.164 178.589 127.706 177.179C127.758 177.033 127.757 176.874 127.701 176.73C127.645 176.586 127.539 176.465 127.401 176.388C125.423 175.308 123.21 174.7 120.944 174.614C118.677 174.528 116.422 174.967 114.364 175.894C115.334 173.874 116.304 171.744 117.228 169.527C117.297 169.441 117.34 169.338 117.353 169.23C117.612 168.604 117.871 167.979 118.119 167.342C120.375 170.098 122.631 171.448 124.886 171.448C127.695 171.448 130.525 169.428 133.593 165.267C133.696 165.126 133.738 164.952 133.711 164.782C133.684 164.612 133.589 164.458 133.447 164.356C128.665 160.842 122.089 163.258 119.112 164.641C119.721 162.994 120.289 161.318 120.815 159.613C120.815 159.613 120.871 159.558 120.871 159.547Z" fill="#EBEBEB"/>
<path d="M360.32 284.631H410.869C415.506 284.631 419.959 282.863 423.272 279.704C426.584 276.544 428.493 272.247 428.587 267.734L430.471 177.64C430.505 175.969 430.197 174.308 429.564 172.754C428.931 171.201 427.987 169.785 426.785 168.591C425.584 167.397 424.15 166.449 422.567 165.8C420.985 165.152 419.285 164.818 417.568 164.817H385.876C382.705 164.816 379.643 165.951 377.276 168.006C374.909 170.061 373.402 172.893 373.042 175.96L360.32 284.631Z" fill="#EBEBEB"/>
<path d="M387.827 284.631H333.962C333.292 284.631 332.65 284.372 332.176 283.91C331.702 283.449 331.436 282.824 331.436 282.171V281.941C331.436 280.153 332.166 278.438 333.464 277.174C334.763 275.91 336.524 275.2 338.361 275.2H387.827V284.631Z" fill="#EBEBEB"/>
<path d="M383.598 360.682C383.336 360.688 383.08 360.604 382.874 360.446C382.668 360.288 382.525 360.064 382.47 359.815L366.681 285.728H339.162L323.372 359.815C323.342 359.959 323.283 360.096 323.198 360.218C323.113 360.34 323.005 360.444 322.878 360.525C322.752 360.606 322.611 360.662 322.462 360.69C322.314 360.718 322.161 360.717 322.013 360.688C321.865 360.658 321.724 360.6 321.599 360.518C321.474 360.435 321.367 360.33 321.283 360.207C321.2 360.084 321.143 359.946 321.114 359.802C321.085 359.657 321.086 359.509 321.117 359.365L337.109 284.411C337.162 284.159 337.304 283.934 337.51 283.773C337.716 283.613 337.973 283.528 338.237 283.533H367.56C367.824 283.528 368.082 283.613 368.288 283.773C368.494 283.934 368.636 284.159 368.688 284.411L384.67 359.365C384.699 359.506 384.7 359.652 384.672 359.793C384.644 359.935 384.587 360.069 384.505 360.19C384.424 360.31 384.318 360.414 384.196 360.494C384.073 360.575 383.935 360.631 383.79 360.66C383.727 360.676 383.663 360.683 383.598 360.682Z" fill="#E0E0E0"/>
<path d="M366.444 360.682C366.369 360.693 366.293 360.693 366.218 360.682C366.073 360.653 365.935 360.597 365.812 360.516C365.69 360.435 365.584 360.332 365.503 360.212C365.421 360.091 365.364 359.957 365.336 359.815C365.308 359.673 365.309 359.528 365.339 359.386L381.32 284.433C381.372 284.181 381.514 283.955 381.72 283.795C381.926 283.634 382.184 283.549 382.448 283.554H411.771C412.035 283.549 412.292 283.634 412.498 283.795C412.704 283.955 412.846 284.181 412.899 284.433L428.88 359.386C428.941 359.678 428.881 359.981 428.713 360.229C428.545 360.477 428.283 360.65 427.984 360.709C427.684 360.769 427.373 360.711 427.118 360.547C426.863 360.383 426.686 360.128 426.625 359.837L410.835 285.75H383.35L367.56 359.837C367.501 360.08 367.358 360.297 367.155 360.451C366.952 360.605 366.701 360.686 366.444 360.682Z" fill="#E0E0E0"/>
<path d="M282.5 409.034C403.27 409.034 501.174 403.469 501.174 396.605C501.174 389.741 403.27 384.177 282.5 384.177C161.73 384.177 63.8259 389.741 63.8259 396.605C63.8259 403.469 161.73 409.034 282.5 409.034Z" fill="#F5F5F5"/>
<path d="M444.783 260.125L443.17 280.865C443.154 281.026 443.076 281.175 442.954 281.285C442.831 281.394 442.671 281.456 442.505 281.458H433.358C433.191 281.458 433.03 281.398 432.906 281.288C432.783 281.178 432.707 281.027 432.693 280.865L432.343 276.21L431.52 265.384L431.125 260.125H444.783Z" fill="#CE6F64"/>
<path opacity="0.2" d="M444.783 260.125L443.17 280.865C443.154 281.026 443.076 281.175 442.954 281.285C442.831 281.394 442.671 281.456 442.505 281.458H433.358C433.191 281.458 433.03 281.398 432.906 281.288C432.783 281.178 432.707 281.027 432.693 280.865L432.343 276.21L431.52 265.384L431.125 260.125H444.783Z" fill="black"/>
<path d="M445.308 259.086L430.589 259.071C430.054 259.07 429.619 259.492 429.618 260.014L429.618 260.211C429.618 260.733 430.051 261.156 430.587 261.157L445.305 261.172C445.841 261.172 446.276 260.75 446.276 260.228L446.276 260.031C446.277 259.509 445.843 259.086 445.308 259.086Z" fill="#EBEBEB"/>
<path d="M168.06 233.534H386.17C388.583 233.533 390.973 233.995 393.203 234.893C395.432 235.791 397.458 237.108 399.165 238.769C400.871 240.43 402.224 242.403 403.147 244.573C404.07 246.744 404.544 249.07 404.542 251.419V332.664H149.654V251.419C149.652 249.067 150.128 246.738 151.053 244.566C151.977 242.393 153.334 240.419 155.044 238.758C156.754 237.096 158.783 235.78 161.017 234.883C163.251 233.987 165.644 233.529 168.06 233.534Z" fill="#CE6F64"/>
<path opacity="0.3" d="M168.06 233.534H386.17C388.583 233.533 390.973 233.995 393.203 234.893C395.432 235.791 397.458 237.108 399.165 238.769C400.871 240.43 402.224 242.403 403.147 244.573C404.07 246.744 404.544 249.07 404.542 251.419V332.664H149.654V251.419C149.652 249.067 150.128 246.738 151.053 244.566C151.977 242.393 153.334 240.419 155.044 238.758C156.754 237.096 158.783 235.78 161.017 234.883C163.251 233.987 165.644 233.529 168.06 233.534Z" fill="white"/>
<path d="M189.838 233.534H391.899C396.536 233.534 400.982 235.327 404.26 238.519C407.539 241.71 409.381 246.038 409.381 250.552V332.664H172.357V250.541C172.36 246.029 174.203 241.704 177.481 238.515C180.759 235.326 185.204 233.534 189.838 233.534Z" fill="#CE6F64"/>
<path opacity="0.6" d="M189.838 233.534H391.899C396.536 233.534 400.982 235.327 404.26 238.519C407.539 241.71 409.381 246.038 409.381 250.552V332.664H172.357V250.541C172.36 246.029 174.203 241.704 177.481 238.515C180.759 235.326 185.204 233.534 189.838 233.534Z" fill="white"/>
<path d="M398.294 281.424C397.742 281.424 397.166 281.424 396.625 281.424C384.85 282.248 375.32 291.953 374.576 303.909C374.405 306.549 374.664 309.199 375.343 311.759C377.936 322.032 379.187 332.582 379.065 343.159V389.568C379.047 390.618 379.456 391.633 380.205 392.39C380.953 393.147 381.978 393.585 383.057 393.608H461.734V281.424H398.294Z" fill="#CE6F64"/>
<path opacity="0.4" d="M398.294 281.424C397.742 281.424 397.166 281.424 396.625 281.424C384.85 282.248 375.32 291.953 374.576 303.909C374.405 306.549 374.664 309.199 375.343 311.759C377.936 322.032 379.187 332.582 379.065 343.159V389.568C379.047 390.618 379.456 391.633 380.205 392.39C380.953 393.147 381.978 393.585 383.057 393.608H461.734V281.424H398.294Z" fill="white"/>
<path d="M485.509 305.535C485.509 291.657 473.949 280.524 460.065 281.48C448.279 282.303 438.76 292.008 438.005 303.965C437.834 306.604 438.092 309.254 438.772 311.815C441.365 322.087 442.615 332.637 442.494 343.215V389.623C442.475 390.673 442.885 391.688 443.633 392.445C444.381 393.202 445.407 393.64 446.486 393.663H476.937C478.016 393.64 479.042 393.202 479.79 392.445C480.538 391.688 480.948 390.673 480.93 389.623V341.447C480.839 331.525 482.075 321.634 484.607 312.023C485.2 309.909 485.503 307.727 485.509 305.535Z" fill="#CE6F64"/>
<path opacity="0.6" d="M485.509 305.535C485.509 291.657 473.949 280.524 460.065 281.48C448.279 282.303 438.76 292.008 438.005 303.965C437.834 306.604 438.092 309.254 438.772 311.815C441.365 322.087 442.615 332.637 442.494 343.215V389.623C442.475 390.673 442.885 391.688 443.633 392.445C444.381 393.202 445.407 393.64 446.486 393.663H476.937C478.016 393.64 479.042 393.202 479.79 392.445C480.538 391.688 480.948 390.673 480.93 389.623V341.447C480.839 331.525 482.075 321.634 484.607 312.023C485.2 309.909 485.503 307.727 485.509 305.535Z" fill="white"/>
<path d="M428.971 319.412H221.305V393.674H428.971V319.412Z" fill="#CE6F64"/>
<path opacity="0.4" d="M428.971 319.412H221.305V393.674H428.971V319.412Z" fill="white"/>
<path d="M227.034 313.297H427.663C428.374 313.297 429.078 313.433 429.734 313.698C430.391 313.963 430.988 314.351 431.491 314.84C431.993 315.33 432.392 315.911 432.664 316.55C432.936 317.189 433.076 317.875 433.076 318.567V332.664C433.076 333.356 432.936 334.041 432.664 334.681C432.392 335.32 431.993 335.901 431.491 336.39C430.988 336.88 430.391 337.268 429.734 337.533C429.078 337.797 428.374 337.934 427.663 337.934H227.034C226.606 337.934 226.196 337.768 225.894 337.474C225.591 337.179 225.421 336.78 225.421 336.364V314.867C225.421 314.45 225.591 314.051 225.894 313.757C226.196 313.462 226.606 313.297 227.034 313.297Z" fill="#CE6F64"/>
<path opacity="0.2" d="M227.034 313.297H427.663C428.374 313.297 429.078 313.433 429.734 313.698C430.391 313.963 430.988 314.351 431.491 314.84C431.993 315.33 432.392 315.911 432.664 316.55C432.936 317.189 433.076 317.875 433.076 318.567V332.664C433.076 333.356 432.936 334.041 432.664 334.681C432.392 335.32 431.993 335.901 431.491 336.39C430.988 336.88 430.391 337.268 429.734 337.533C429.078 337.797 428.374 337.934 427.663 337.934H227.034C226.606 337.934 226.196 337.768 225.894 337.474C225.591 337.179 225.421 336.78 225.421 336.364V314.867C225.421 314.45 225.591 314.051 225.894 313.757C226.196 313.462 226.606 313.297 227.034 313.297Z" fill="white"/>
<path d="M139.954 393.663H462.952V393.718C462.952 394.481 462.641 395.212 462.087 395.752C461.532 396.291 460.781 396.594 459.997 396.594H142.909C142.126 396.594 141.374 396.291 140.82 395.752C140.266 395.212 139.954 394.481 139.954 393.718V393.663Z" fill="#CE6F64"/>
<path opacity="0.2" d="M139.954 393.663H462.952V393.718C462.952 394.481 462.641 395.212 462.087 395.752C461.532 396.291 460.781 396.594 459.997 396.594H142.909C142.126 396.594 141.374 396.291 140.82 395.752C140.266 395.212 139.954 394.481 139.954 393.718V393.663Z" fill="white"/>
<path opacity="0.1" d="M424.663 380.049C418.29 381.388 413.779 381.443 410.587 380.905C411.309 380.712 411.927 380.256 412.313 379.632C412.397 379.443 412.427 379.235 412.401 379.031C412.375 378.826 412.294 378.632 412.166 378.468C412.106 378.359 412.016 378.268 411.907 378.204C411.798 378.141 411.673 378.107 411.546 378.106C410.836 378.106 409.899 379.094 409.2 379.961C409.546 379.089 409.546 378.122 409.2 377.249C409.103 377.116 408.96 377.02 408.797 376.978C408.635 376.935 408.462 376.95 408.309 377.019C408.151 377.066 408.005 377.146 407.882 377.255C407.759 377.363 407.663 377.496 407.599 377.645C407.364 378.597 407.451 379.598 407.847 380.499C407.674 380.521 407.503 380.562 407.339 380.62L402.772 374.68L404.61 373.044L403.336 369.992L402.151 370.969C401.023 369.268 399.264 366.479 397.099 362.955C401.835 353.129 406.054 340.865 406.336 328.052C406.719 310.486 383.937 301.516 366.23 297.223L370.008 269.842C371.68 265.932 373.012 261.892 373.99 257.765C374.976 256.079 375.584 254.208 375.771 252.275L375.411 244.59L368.091 243.492L367.538 247.027L367.719 248.51C367.372 248.309 366.98 248.194 366.577 248.175C366.174 248.156 365.772 248.233 365.407 248.4C365.112 248.041 364.746 247.743 364.33 247.525C363.915 247.306 363.459 247.17 362.989 247.126C362.519 247.082 362.044 247.131 361.594 247.268C361.143 247.406 360.725 247.63 360.365 247.928C359.814 247.375 359.087 247.019 358.301 246.918C357.445 246.804 356.575 247.008 355.865 247.489C354.67 242.91 352.775 237.443 350.497 236.883C349.476 236.613 348.435 236.418 347.384 236.301C344.914 235.873 341.294 235.269 337.561 234.83C336.433 234.687 335.305 234.566 334.177 234.467C333.771 234.369 333.399 234.259 333.049 234.138L334.888 233.754C337.426 234.612 340.188 234.612 342.726 233.754H349.741V233.534H205.38C202.778 238.605 200.517 243.834 198.613 249.19L201.015 250.113C199.741 252.737 198.568 255.415 197.53 258.226C196.389 261.238 195.51 264.337 194.902 267.492C194.591 269.193 194.41 270.914 194.361 272.641C194.288 274.698 194.609 276.749 195.308 278.691C195.717 279.866 196.302 280.976 197.045 281.985C197.855 283.041 198.852 283.948 199.989 284.663C201.036 285.308 202.176 285.797 203.372 286.113C204.434 286.35 205.519 286.475 206.609 286.486C208.477 286.48 210.333 286.195 212.113 285.641C212.62 285.487 213.094 285.289 213.579 285.114C214.852 285.457 216.161 285.659 217.481 285.717L223.944 288.605L227.553 282.281C227.947 286.343 228.229 289.341 228.534 290.878C230.553 303.207 234.252 311.101 240.365 315.196C246.805 319.511 265.38 316.645 277.324 316.107C280.391 318.654 283.459 321.246 286.448 323.793C281.666 338.318 270.252 361.242 266.226 369.147L265.448 368.631L262.933 372.715L265.425 374.647L263.327 377.216L257.688 384.265L256.955 383.826C256.812 383.74 256.645 383.702 256.477 383.718C256.31 383.734 256.153 383.802 256.03 383.914L250.335 388.92C250.196 389.033 250.088 389.177 250.018 389.34C249.949 389.503 249.921 389.679 249.936 389.855C249.952 390.03 250.01 390.199 250.107 390.348C250.204 390.497 250.336 390.621 250.493 390.71C253.301 392.335 254.767 393.663 258.455 395.431C259.168 395.758 259.86 396.125 260.53 396.529H269.767C268.41 394.96 267.338 393.178 266.598 391.259C267.169 391.672 267.842 391.929 268.549 392.005H268.752C268.932 391.987 269.106 391.926 269.257 391.829C269.408 391.731 269.533 391.6 269.621 391.445C269.675 391.358 269.704 391.257 269.704 391.154C269.704 391.052 269.675 390.951 269.621 390.863C269.339 390.314 268.03 389.963 266.846 389.765C267.861 389.59 268.842 389.249 269.045 388.766C269.136 388.58 269.147 388.283 268.73 387.976C267.602 387.13 266.068 388.239 265.245 388.986C265.086 388.81 264.904 388.654 264.703 388.525L271.854 379.599L275.045 382.08L279.331 377.82L277.504 376.613C286.941 364.878 295.724 352.659 303.816 340.009C316.222 353.908 326.756 372.638 331.121 380.916L329.846 381.762L333.083 386.153L336.083 383.958L338.339 387.581L342.681 394.574L341.993 395.079C341.859 395.18 341.763 395.32 341.718 395.478C341.674 395.636 341.683 395.805 341.745 395.958L341.982 396.539H355.144L355.775 396.067C358.392 394.124 360.839 392.455 363.557 390.578C363.503 390.876 363.541 391.183 363.665 391.46C363.789 391.737 363.995 391.973 364.256 392.137C367.132 393.85 368.768 394.662 371.948 396.583H383.497C382.328 395.187 381.519 393.538 381.14 391.775C381.912 392.447 382.868 392.885 383.892 393.037H384.129C384.324 393.006 384.508 392.929 384.666 392.812C384.823 392.695 384.948 392.543 385.031 392.367C385.086 392.27 385.115 392.16 385.115 392.049C385.115 391.938 385.086 391.828 385.031 391.731C384.647 391.039 382.899 390.633 381.49 390.402C382.719 390.216 383.993 389.787 384.264 389.184C384.354 388.975 384.377 388.646 383.903 388.283C383.732 388.149 383.535 388.051 383.324 387.994C383.112 387.938 382.891 387.924 382.674 387.954C381.7 388.204 380.827 388.736 380.17 389.48C380.031 389.325 379.872 389.188 379.696 389.074L378.941 388.613L382.933 382.882L386.565 384.946L388.561 382.893L386.26 381.476L387.602 379.467C388.132 378.699 388.73 377.864 389.283 376.953C390.287 377.985 391.155 378.841 391.843 379.522L390.715 380.466L394.099 382.497L395.802 380.982L397.73 383.485L398.542 384.583L397.414 385.077C397.242 385.15 397.103 385.282 397.024 385.448C396.945 385.614 396.932 385.803 396.986 385.978L399.399 394.091C399.467 394.294 399.578 394.48 399.725 394.637C399.871 394.795 400.051 394.921 400.251 395.006C400.452 395.091 400.669 395.134 400.887 395.131C401.106 395.129 401.321 395.081 401.52 394.991C404.903 393.41 406.505 392.488 410.858 390.6C413.531 389.425 420.524 386.669 424.223 385.044C427.922 383.42 426.354 379.698 424.663 380.049ZM222.184 276.495L213.162 277.955L213.071 278.087C211.185 278.275 209.279 278.156 207.432 277.736C207.038 277.623 206.66 277.465 206.304 277.264C206.097 277.137 205.92 276.969 205.786 276.77C205.728 276.631 205.683 276.488 205.65 276.341C205.61 276.12 205.584 275.896 205.571 275.672C205.529 273.668 205.752 271.668 206.237 269.721C206.885 267.232 207.718 264.792 208.729 262.42C209.857 259.785 211.12 257.172 212.508 254.57L216.624 256.151C216.624 256.151 219.218 251.331 222.004 245.315L222.207 246.237C222.331 246.786 222.444 247.335 222.556 247.862C224.754 258.657 226.351 269.561 227.338 280.524L222.184 276.495ZM269.305 391.083C269.326 391.114 269.338 391.15 269.338 391.187C269.338 391.224 269.326 391.261 269.305 391.291C269.246 391.397 269.162 391.486 269.06 391.553C268.958 391.62 268.841 391.662 268.718 391.676C267.804 391.581 266.948 391.195 266.282 390.578C266.192 390.391 266.102 390.194 266 389.996C267.433 390.249 269.068 390.611 269.305 391.083ZM268.515 388.305C268.786 388.503 268.741 388.613 268.718 388.657C268.527 389.107 266.925 389.491 265.707 389.546L265.527 389.304C266.271 388.657 267.624 387.635 268.515 388.305ZM384.771 391.873C384.799 391.926 384.814 391.984 384.814 392.044C384.814 392.103 384.799 392.161 384.771 392.214C384.71 392.343 384.617 392.457 384.501 392.544C384.386 392.632 384.25 392.692 384.106 392.719C383.429 392.829 382.324 392.291 381.016 391.281C380.959 391.05 380.892 390.83 380.824 390.611C382.347 390.852 384.411 391.237 384.771 391.873ZM382.741 388.261C382.914 388.232 383.091 388.24 383.26 388.283C383.43 388.327 383.587 388.406 383.723 388.514C384.095 388.799 384.016 388.986 383.982 389.052C383.745 389.601 382.031 390.084 380.666 390.15C380.593 389.989 380.507 389.835 380.407 389.689C381.016 388.991 381.831 388.493 382.741 388.261ZM306.737 291.119H306.681C306.501 291.116 306.326 291.175 306.185 291.284C297.895 288.835 287.215 287.65 277.921 287.09C274.538 285.333 272.418 284.356 272.418 284.356C273.388 263.716 271.29 247.774 268.583 236.444C274.482 237.421 279.399 237.805 279.399 237.805L279.895 234.731H280.008C285.96 236.049 291.985 237.035 298.053 237.684C294.286 241.428 289.752 252.759 289.752 252.759L293.361 255.273C292.538 258.083 291.782 260.905 291.106 263.781C290.429 266.658 289.831 269.491 289.38 272.466C289.143 273.948 288.963 275.463 288.861 277.044C288.805 277.835 288.782 278.636 288.782 279.481C288.782 279.899 288.782 280.36 288.782 280.788C288.81 281.51 288.931 282.225 289.143 282.918C289.615 284.409 290.525 285.733 291.76 286.728C292.731 287.497 293.84 288.085 295.03 288.462C296.818 289.018 298.681 289.311 300.557 289.33C302.642 289.368 304.728 289.247 306.794 288.967C306.782 289.692 306.76 290.395 306.737 291.119ZM297.715 280.338C297.648 280.299 297.59 280.247 297.546 280.184C297.627 280.216 297.697 280.269 297.749 280.338H297.715ZM301.098 281.216C300.058 281.128 299.036 280.895 298.064 280.524L297.873 280.426C297.873 280.184 297.873 279.964 297.873 279.701C297.873 279.13 297.974 278.526 298.064 277.911C298.233 276.671 298.459 275.375 298.73 274.069C299.271 271.456 299.959 268.799 300.67 266.131C301.098 264.55 301.561 262.969 302.034 261.388L304.922 263.397L305.113 263.046C305.508 265.527 305.824 267.822 306.061 269.974C306.534 274.168 306.76 277.835 306.816 281.381C304.916 281.463 303.012 281.408 301.121 281.216H301.098ZM350.576 389.205L350.283 389.282C349.91 388.36 349.425 386.779 350.395 386.208C350.477 386.146 350.575 386.108 350.677 386.098C350.695 386.091 350.714 386.087 350.734 386.087C350.753 386.087 350.772 386.091 350.79 386.098C351.174 386.461 350.993 388.064 350.598 389.205H350.576ZM351.151 389.129C351.862 387.888 352.798 386.527 353.328 386.483C353.36 386.482 353.391 386.49 353.419 386.506C353.447 386.521 353.47 386.544 353.486 386.571C353.566 386.661 353.624 386.769 353.653 386.886C353.682 387.002 353.683 387.124 353.655 387.24C353.531 387.756 352.888 388.393 351.862 389.03C351.67 389.063 351.433 389.107 351.174 389.129H351.151ZM377.091 366.556C375.76 370.102 374.7 372.638 373.99 374.241L372.681 373.473L371.317 376.195L374.587 378.062L372.794 380.642L370.798 383.496L370.527 383.332C370.372 383.231 370.184 383.189 370 383.213C369.815 383.238 369.646 383.327 369.523 383.463L369.072 383.979C368.88 383.145 368.328 382.629 367.753 382.882C362.317 385.33 358.245 388.02 352.73 388.854C353.336 388.475 353.803 387.917 354.061 387.262C354.101 387.091 354.1 386.913 354.059 386.742C354.018 386.571 353.938 386.411 353.824 386.274C353.763 386.191 353.681 386.125 353.586 386.083C353.491 386.041 353.387 386.023 353.283 386.033C352.662 386.098 351.85 387.13 351.219 388.162C351.41 387.174 351.444 386.164 351.05 385.802C350.903 385.659 350.621 385.549 350.181 385.802C348.963 386.527 349.482 388.305 349.899 389.326C349.678 389.416 349.467 389.527 349.268 389.656L342.737 379.127L346.392 376.481L344.531 372.078L344.17 372.32C339.602 357.197 334.073 342.365 327.613 327.91C326.752 326.05 325.73 324.265 324.557 322.574C336.038 323.815 349.786 324.88 358.223 338.296C364.107 347.483 370.67 356.241 377.858 364.503C377.61 365.216 377.362 365.908 377.114 366.556H377.091ZM384.005 339.635C381.817 335.244 379.809 330.852 378.208 326.702C379.233 327.286 380.199 327.962 381.095 328.722H381.151C381.411 328.942 381.647 329.161 381.873 329.392L381.941 329.469C382.385 329.92 382.781 330.412 383.125 330.94C383.167 331.024 383.216 331.105 383.272 331.181L383.542 331.687C383.542 331.785 383.644 331.895 383.678 331.994C383.711 332.093 383.802 332.301 383.858 332.466C383.914 332.631 383.948 332.719 383.982 332.839C384.016 332.96 384.084 333.278 384.117 333.498C384.151 333.718 384.174 333.959 384.185 334.19C384.238 336.007 384.178 337.825 384.005 339.635ZM408.208 380.477C407.821 379.625 407.719 378.677 407.914 377.765C407.96 377.657 408.03 377.56 408.12 377.482C408.21 377.404 408.317 377.347 408.433 377.315H408.659C408.719 377.312 408.779 377.325 408.833 377.352C408.886 377.379 408.931 377.419 408.963 377.469C409.347 377.985 409.065 379.511 408.636 380.543C408.503 380.511 408.367 380.489 408.23 380.477H408.208ZM409.099 380.598C409.82 379.643 410.869 378.402 411.524 378.402C411.596 378.402 411.667 378.422 411.728 378.459C411.79 378.496 411.84 378.548 411.873 378.611C411.97 378.734 412.032 378.88 412.054 379.034C412.076 379.188 412.056 379.345 411.997 379.489C411.503 380.158 410.764 380.618 409.933 380.774C409.66 380.728 409.389 380.67 409.121 380.598H409.099Z" fill="black"/>
<path d="M273.647 218.262C279.286 219.887 285.162 221.49 290.925 222.972C293.824 223.719 296.722 224.411 299.621 225.08C302.519 225.75 305.406 226.321 308.294 226.837C308.948 226.925 309.421 227.013 310.121 227.079L312.173 227.232C313.594 227.32 315.061 227.364 316.538 227.397C319.515 227.397 322.527 227.463 325.561 227.397C331.628 227.397 337.764 227.32 343.876 227.331L344.587 233.359C338.497 234.687 332.418 235.763 326.237 236.597C323.158 236.993 320.045 237.377 316.888 237.618C315.297 237.739 313.696 237.838 312.049 237.904C311.226 237.904 310.357 237.904 309.512 237.904C308.666 237.904 307.617 237.816 306.748 237.75C300.44 237.103 294.177 236.092 287.993 234.72C281.846 233.381 275.88 231.811 269.801 229.878L273.647 218.262Z" fill="#E4897B"/>
<path d="M412.178 392.016L419.046 385.396L405.512 367.785L398.644 374.406L412.178 392.016Z" fill="#71403E"/>
<path d="M374.723 389.447L383.069 394.201L395.644 376.118L387.298 371.376L374.723 389.447Z" fill="#71403E"/>
<path d="M395.644 376.129L389.159 385.44L380.813 380.697L387.298 371.376L395.644 376.129Z" fill="#542F2F"/>
<path d="M398.644 374.417L405.512 367.796L412.482 376.876L405.614 383.496L398.644 374.417Z" fill="#542F2F"/>
<path d="M392.204 334.245C392.486 342.644 389.858 352.909 386.959 361.374C386.35 363.185 385.719 364.942 385.11 366.556C382.471 373.549 380.937 376.635 380.937 376.635L393.027 383.496C393.789 382.098 394.648 380.752 395.598 379.467C396.625 377.985 397.786 376.173 398.982 374.164C405.456 363.624 413.937 346.398 414.343 328.052C414.975 299.353 353.88 293.644 353.88 293.644H325.008L333.106 316.019C333.106 316.019 391.674 318.951 392.204 334.245Z" fill="#CE6F64"/>
<path opacity="0.2" d="M392.204 334.245C392.486 342.644 389.858 352.909 386.959 361.374C386.35 363.185 385.719 364.942 385.11 366.556C382.471 373.549 380.937 376.635 380.937 376.635L393.027 383.496C393.789 382.098 394.648 380.752 395.598 379.467C396.625 377.985 397.786 376.173 398.982 374.164C405.456 363.624 413.937 346.398 414.343 328.052C414.975 299.353 353.88 293.644 353.88 293.644H325.008L333.106 316.019C333.106 316.019 391.674 318.951 392.204 334.245Z" fill="black"/>
<path opacity="0.3" d="M385.132 366.556C388 371.295 391.509 375.638 395.565 379.467C396.591 377.985 397.753 376.173 398.948 374.164L386.937 361.374C386.35 363.185 385.719 364.942 385.132 366.556Z" fill="black"/>
<path d="M379.335 376.25L394.584 384.935L396.58 382.882L380.689 373.517L379.335 376.25Z" fill="#CE6F64"/>
<path opacity="0.3" d="M375.162 310.464L376.391 322.662C384.94 325.264 391.516 328.832 392.181 333.641C393.602 322.881 385.876 316.514 375.162 310.464Z" fill="black"/>
<path d="M343.505 293.644C343.505 293.644 379.674 308.005 385.234 323.88C392.26 344.148 411.366 372.77 411.366 372.77L401.689 381.356C401.689 381.356 381.275 362.142 366.287 338.296C347.463 308.334 302.079 339.976 314.666 293.644H343.505Z" fill="#CE6F64"/>
<path opacity="0.2" d="M343.505 293.644C343.505 293.644 379.674 308.005 385.234 323.88C392.26 344.148 411.366 372.77 411.366 372.77L401.689 381.356C401.689 381.356 381.275 362.142 366.287 338.296C347.463 308.334 302.079 339.976 314.666 293.644H343.505Z" fill="black"/>
<path d="M401.982 382.497L412.651 373.044L411.332 369.992L398.644 380.466L401.982 382.497Z" fill="#CE6F64"/>
<path d="M314.079 291.405L313.775 294.83C313.628 295.094 313.955 295.357 314.407 295.357H354.117C354.467 295.357 354.76 295.192 354.783 294.973L355.132 291.558C355.132 291.317 354.85 291.119 354.467 291.119H314.677C314.561 291.117 314.447 291.142 314.343 291.192C314.239 291.242 314.149 291.315 314.079 291.405Z" fill="#CE6F64"/>
<path d="M319.38 295.73H318.309C318.094 295.73 317.936 295.621 317.948 295.5L318.455 291.108C318.455 290.976 318.647 290.867 318.861 290.867H319.933C320.136 290.867 320.305 290.976 320.282 291.108L319.786 295.5C319.775 295.621 319.583 295.73 319.38 295.73Z" fill="#CE6F64"/>
<path d="M351.072 295.73H350.012C349.798 295.73 349.64 295.621 349.651 295.5L350.147 291.108C350.147 290.976 350.35 290.867 350.565 290.867H351.625C351.839 290.867 351.997 290.976 351.986 291.108L351.489 295.5C351.478 295.621 351.298 295.73 351.072 295.73Z" fill="#CE6F64"/>
<path d="M335.226 295.73H334.166C333.952 295.73 333.782 295.621 333.805 295.5L334.301 291.108C334.301 290.976 334.504 290.867 334.719 290.867H335.779C335.993 290.867 336.151 290.976 336.14 291.108L335.632 295.5C335.621 295.621 335.44 295.73 335.226 295.73Z" fill="#CE6F64"/>
<g opacity="0.6">
<path d="M319.38 295.73H318.309C318.094 295.73 317.936 295.621 317.948 295.5L318.455 291.108C318.455 290.976 318.647 290.867 318.861 290.867H319.933C320.136 290.867 320.305 290.976 320.282 291.108L319.786 295.5C319.775 295.621 319.583 295.73 319.38 295.73Z" fill="black"/>
<path d="M351.072 295.73H350.012C349.797 295.73 349.64 295.621 349.651 295.5L350.147 291.108C350.147 290.976 350.35 290.867 350.564 290.867H351.625C351.839 290.867 351.997 290.976 351.985 291.108L351.489 295.5C351.478 295.621 351.297 295.73 351.072 295.73Z" fill="black"/>
<path d="M335.226 295.73H334.166C333.952 295.73 333.782 295.621 333.805 295.5L334.301 291.108C334.301 290.976 334.504 290.867 334.718 290.867H335.779C335.993 290.867 336.151 290.976 336.139 291.108L335.632 295.5C335.621 295.621 335.44 295.73 335.226 295.73Z" fill="black"/>
</g>
<path d="M391.899 393.048C390.546 393.048 388.606 391.434 387.523 390.435C387.506 390.407 387.498 390.375 387.498 390.342C387.498 390.309 387.506 390.277 387.523 390.249C387.539 390.219 387.564 390.195 387.594 390.179C387.624 390.163 387.658 390.157 387.692 390.161C388.177 390.161 392.441 390.6 393.083 391.72C393.139 391.819 393.168 391.931 393.168 392.044C393.168 392.157 393.139 392.268 393.083 392.368C392.999 392.54 392.872 392.69 392.715 392.805C392.558 392.919 392.375 392.995 392.181 393.026L391.899 393.048ZM388.098 390.523C389.79 392.038 391.256 392.851 392.091 392.719C392.237 392.698 392.375 392.64 392.492 392.552C392.608 392.463 392.7 392.347 392.756 392.214C392.787 392.162 392.803 392.103 392.803 392.044C392.803 391.984 392.787 391.925 392.756 391.873C392.339 391.138 389.644 390.688 388.098 390.523Z" fill="#CE6F64"/>
<path d="M388.177 390.512C387.99 390.524 387.801 390.524 387.613 390.512C387.586 390.508 387.559 390.497 387.538 390.479C387.516 390.462 387.499 390.439 387.489 390.413C387.476 390.39 387.468 390.363 387.468 390.336C387.468 390.309 387.476 390.283 387.489 390.26C387.557 390.172 389.125 388.174 390.67 387.987C390.886 387.953 391.108 387.963 391.319 388.018C391.531 388.073 391.729 388.171 391.899 388.305C392.362 388.668 392.35 388.997 392.249 389.206C391.899 390.018 389.644 390.512 388.177 390.512ZM387.952 390.194C389.373 390.271 391.696 389.7 391.978 389.096C391.978 389.041 392.091 388.854 391.719 388.569C391.582 388.46 391.422 388.38 391.251 388.334C391.08 388.289 390.901 388.279 390.726 388.305C389.625 388.643 388.656 389.302 387.952 390.194Z" fill="#CE6F64"/>
<path d="M416.395 381.509C416.369 381.511 416.342 381.506 416.318 381.494C416.295 381.483 416.274 381.465 416.26 381.443C416.243 381.417 416.234 381.386 416.234 381.355C416.234 381.324 416.243 381.294 416.26 381.268C416.474 380.938 418.347 378.117 419.542 378.117C419.67 378.117 419.795 378.149 419.906 378.211C420.017 378.272 420.109 378.361 420.174 378.468C420.3 378.635 420.379 378.831 420.405 379.037C420.431 379.242 420.401 379.451 420.32 379.643C419.847 380.741 417.681 381.268 416.429 381.509H416.395ZM419.531 378.424C418.764 378.424 417.41 380.148 416.745 381.114C418.527 380.741 419.734 380.148 420.016 379.511C420.075 379.368 420.094 379.213 420.073 379.061C420.051 378.909 419.989 378.765 419.892 378.644C419.858 378.578 419.807 378.523 419.743 378.484C419.679 378.445 419.606 378.424 419.531 378.424Z" fill="#CE6F64"/>
<path d="M416.395 381.509C416.341 381.497 416.292 381.466 416.26 381.421C416.26 381.311 415.132 378.863 415.651 377.644C415.716 377.495 415.815 377.361 415.94 377.253C416.064 377.144 416.212 377.064 416.373 377.019C416.526 376.952 416.698 376.939 416.86 376.981C417.022 377.023 417.165 377.117 417.264 377.249C417.862 378.062 417.264 380.543 416.542 381.443C416.526 381.466 416.504 381.484 416.478 381.496C416.452 381.507 416.424 381.512 416.395 381.509ZM416.666 377.282H416.441C416.326 377.318 416.221 377.378 416.134 377.457C416.046 377.537 415.977 377.635 415.933 377.743C415.527 378.611 416.147 380.312 416.418 381.037C416.959 380.071 417.422 378.062 416.982 377.458C416.953 377.411 416.913 377.371 416.867 377.341C416.82 377.31 416.767 377.29 416.711 377.282H416.666Z" fill="#CE6F64"/>
<path d="M387.704 389.074L378.557 383.387C378.401 383.285 378.212 383.243 378.027 383.27C377.841 383.296 377.673 383.389 377.553 383.529L371.914 389.93C371.781 390.095 371.685 390.285 371.632 390.489C371.579 390.692 371.57 390.904 371.607 391.111C371.643 391.317 371.723 391.515 371.842 391.689C371.961 391.864 372.116 392.013 372.298 392.126C375.523 394.058 377.181 394.827 381.207 397.33C383.677 398.867 388.482 402.117 392.283 403.489C396.083 404.862 397.674 401.293 396.219 400.36C389.677 396.32 389.779 393.476 388.775 390.38C388.591 389.834 388.211 389.37 387.704 389.074Z" fill="#CE6F64"/>
<path opacity="0.5" d="M387.704 389.074L378.557 383.387C378.401 383.285 378.212 383.243 378.027 383.27C377.841 383.296 377.673 383.389 377.553 383.529L371.914 389.93C371.781 390.095 371.685 390.285 371.632 390.489C371.579 390.692 371.57 390.904 371.607 391.111C371.643 391.317 371.723 391.515 371.842 391.689C371.961 391.864 372.116 392.013 372.298 392.126C375.523 394.058 377.181 394.827 381.207 397.33C383.677 398.867 388.482 402.117 392.283 403.489C396.083 404.862 397.674 401.293 396.219 400.36C389.677 396.32 389.779 393.476 388.775 390.38C388.591 389.834 388.211 389.37 387.704 389.074Z" fill="black"/>
<path d="M415.189 380.686L405.298 385.077C405.128 385.15 404.991 385.28 404.912 385.444C404.833 385.607 404.818 385.793 404.869 385.967L407.283 394.08C407.35 394.283 407.461 394.469 407.608 394.627C407.755 394.784 407.934 394.91 408.135 394.995C408.335 395.08 408.552 395.123 408.77 395.12C408.989 395.118 409.205 395.07 409.403 394.98C412.786 393.41 414.399 392.477 418.753 390.589C421.426 389.403 428.418 386.647 432.106 385.023C435.794 383.398 434.362 379.753 432.659 380.104C425.091 381.707 420.117 381.487 416.869 380.62C416.318 380.454 415.724 380.477 415.189 380.686Z" fill="#CE6F64"/>
<path opacity="0.5" d="M415.189 380.686L405.298 385.077C405.128 385.15 404.991 385.28 404.912 385.444C404.833 385.607 404.818 385.793 404.869 385.967L407.283 394.08C407.35 394.283 407.461 394.469 407.608 394.627C407.755 394.784 407.934 394.91 408.135 394.995C408.335 395.08 408.552 395.123 408.77 395.12C408.989 395.118 409.205 395.07 409.403 394.98C412.786 393.41 414.399 392.477 418.753 390.589C421.426 389.403 428.418 386.647 432.106 385.023C435.794 383.398 434.362 379.753 432.659 380.104C425.091 381.707 420.117 381.487 416.869 380.62C416.318 380.454 415.724 380.477 415.189 380.686Z" fill="black"/>
<path d="M358.493 236.872C362.474 237.86 365.26 253.812 365.26 253.812L354.286 261.081C354.286 261.081 343.764 244.985 346.831 240.715C350.012 236.279 352.685 235.434 358.493 236.872Z" fill="#CE6F64"/>
<path opacity="0.6" d="M358.493 236.872C362.474 237.86 365.26 253.812 365.26 253.812L354.286 261.081C354.286 261.081 343.764 244.985 346.831 240.715C350.012 236.279 352.685 235.434 358.493 236.872Z" fill="black"/>
<path d="M314.632 293.655H353.869C363.095 238.442 358.493 236.872 358.493 236.872C358.493 236.872 352.166 235.609 345.557 234.819C344.429 234.687 343.301 234.555 342.174 234.456C336.238 234.044 330.279 234.044 324.343 234.456C323.215 234.511 322.087 234.588 320.959 234.687C316.489 235.077 312.046 235.715 307.651 236.597C315.309 268.513 315.286 278.098 314.632 293.655Z" fill="#CE6F64"/>
<path opacity="0.6" d="M314.632 293.655H353.869C363.095 238.442 358.493 236.872 358.493 236.872C358.493 236.872 352.166 235.609 345.557 234.819C344.429 234.687 343.301 234.555 342.174 234.456C336.238 234.044 330.279 234.044 324.343 234.456C323.215 234.511 322.087 234.588 320.959 234.687C316.489 235.077 312.046 235.715 307.651 236.597C315.309 268.513 315.286 278.098 314.632 293.655Z" fill="black"/>
<path d="M376.719 256.447L375.523 247.027L383.756 252.253C383.756 252.253 383.294 258.281 379.628 259.862L376.719 256.447Z" fill="#71403E"/>
<path d="M376.087 243.426L383.396 244.524L383.757 252.242L375.535 247.027L376.087 243.426Z" fill="#71403E"/>
<path d="M320.982 234.687L321.399 235.653C321.625 236.191 327.094 248.696 337.685 257.051L340.279 259.082L342.275 256.469C348.23 248.619 346.448 238.409 345.568 234.819C344.44 234.687 343.313 234.555 342.185 234.456C336.249 234.044 330.29 234.044 324.354 234.456C323.203 234.511 322.076 234.588 320.982 234.687Z" fill="#EBEBEB"/>
<path d="M324.331 226.167C339.822 226.167 352.38 213.943 352.38 198.863C352.38 183.783 339.822 171.558 324.331 171.558C308.84 171.558 296.282 183.783 296.282 198.863C296.282 213.943 308.84 226.167 324.331 226.167Z" fill="#263238"/>
<path d="M326.102 214.925C327.23 220.502 328.358 230.735 324.331 234.457C324.331 234.457 329.598 246.687 339.692 254.636C346.008 246.314 342.151 234.457 342.151 234.457C335.767 232.974 335.925 228.352 337.042 224.016L326.102 214.925Z" fill="#71403E"/>
<path d="M330.557 218.636L337.031 224.015C336.758 225.023 336.577 226.051 336.489 227.09C334.042 226.749 330.692 224.136 330.433 221.6C330.292 220.613 330.334 219.609 330.557 218.636Z" fill="#542F2F"/>
<path d="M320.282 204.209C321.873 213.41 322.358 217.384 327.681 221.6C335.7 228.001 346.967 224.07 348.219 214.595C349.346 206.054 346.549 192.429 336.828 189.717C334.687 189.105 332.421 189.036 330.245 189.517C328.07 189.998 326.057 191.013 324.398 192.466C322.74 193.919 321.491 195.761 320.77 197.816C320.05 199.872 319.882 202.073 320.282 204.209Z" fill="#71403E"/>
<path d="M322.076 212.081C322.076 212.081 334.042 203.353 323.7 192.067C312.117 192.681 317.305 215.551 322.076 212.081Z" fill="#263238"/>
<path d="M346.267 190.003C346.267 190.003 332.079 179.21 321.568 192.495C331.628 202.211 350.801 193.757 346.267 190.003Z" fill="#263238"/>
<path d="M318.703 212.992C319.4 214.66 320.723 216.006 322.403 216.758C324.658 217.724 326.034 215.913 325.64 213.706C325.29 211.73 323.711 208.831 321.354 208.777C318.997 208.722 317.869 210.928 318.703 212.992Z" fill="#71403E"/>
<path d="M335 205.307C335.079 206.065 335.564 206.636 336.072 206.581C336.579 206.526 336.918 205.867 336.839 205.121C336.76 204.374 336.275 203.792 335.767 203.847C335.26 203.902 334.921 204.561 335 205.307Z" fill="#263238"/>
<path d="M343.764 204.407C343.843 205.164 344.316 205.735 344.824 205.681C345.331 205.626 345.681 204.978 345.591 204.22C345.501 203.463 345.038 202.892 344.531 202.947C344.023 203.002 343.673 203.649 343.764 204.407Z" fill="#263238"/>
<path d="M344.305 203.013L346.109 202.299C346.109 202.299 345.309 203.814 344.305 203.013Z" fill="#263238"/>
<path d="M341.587 205.944C342.464 207.596 343.573 209.122 344.88 210.478C344.514 210.792 344.083 211.025 343.616 211.162C343.149 211.298 342.657 211.335 342.173 211.269L341.587 205.944Z" fill="#561616"/>
<path d="M338.44 214.343C336.758 214.083 335.241 213.207 334.2 211.895C334.174 211.868 334.159 211.833 334.159 211.796C334.159 211.759 334.174 211.724 334.2 211.697C334.227 211.671 334.263 211.657 334.301 211.657C334.339 211.657 334.375 211.671 334.403 211.697C335.4 212.942 336.841 213.777 338.44 214.036C338.46 214.037 338.478 214.042 338.496 214.05C338.513 214.059 338.528 214.071 338.541 214.085C338.553 214.099 338.563 214.116 338.569 214.134C338.575 214.152 338.577 214.17 338.576 214.189C338.577 214.208 338.575 214.227 338.569 214.245C338.563 214.263 338.553 214.279 338.541 214.293C338.528 214.308 338.513 214.319 338.496 214.328C338.478 214.336 338.46 214.342 338.44 214.343Z" fill="#263238"/>
<path d="M333.038 202.376C332.987 202.392 332.932 202.392 332.88 202.376C332.848 202.357 332.82 202.332 332.798 202.302C332.776 202.272 332.76 202.238 332.751 202.202C332.743 202.166 332.742 202.129 332.749 202.093C332.755 202.057 332.769 202.022 332.79 201.991C333.143 201.408 333.634 200.914 334.222 200.553C334.811 200.192 335.48 199.974 336.173 199.916C336.248 199.923 336.319 199.953 336.374 200.003C336.429 200.053 336.466 200.119 336.478 200.191C336.478 200.268 336.447 200.341 336.393 200.397C336.338 200.452 336.263 200.485 336.185 200.487C335.585 200.539 335.008 200.729 334.499 201.042C333.991 201.355 333.567 201.783 333.264 202.288C333.235 202.317 333.2 202.341 333.161 202.356C333.122 202.371 333.08 202.378 333.038 202.376Z" fill="#263238"/>
<path d="M347.26 199.906C347.217 199.906 347.175 199.897 347.137 199.88C347.098 199.863 347.063 199.838 347.035 199.807C346.664 199.344 346.185 198.974 345.637 198.728C345.09 198.482 344.49 198.366 343.888 198.391C343.849 198.397 343.809 198.395 343.771 198.386C343.733 198.376 343.698 198.359 343.667 198.335C343.636 198.311 343.611 198.281 343.592 198.247C343.574 198.214 343.563 198.176 343.561 198.138C343.554 198.064 343.578 197.991 343.626 197.933C343.675 197.876 343.744 197.839 343.82 197.831C344.519 197.793 345.218 197.92 345.856 198.201C346.494 198.482 347.053 198.909 347.486 199.445C347.513 199.47 347.535 199.501 347.549 199.535C347.564 199.569 347.572 199.605 347.572 199.642C347.572 199.679 347.564 199.716 347.549 199.75C347.535 199.784 347.513 199.814 347.486 199.84C347.456 199.867 347.42 199.888 347.381 199.899C347.342 199.911 347.3 199.913 347.26 199.906Z" fill="#263238"/>
<path d="M335.508 203.924L337.312 203.21C337.312 203.21 336.557 204.725 335.508 203.924Z" fill="#263238"/>
<path opacity="0.2" d="M316.899 251.419L311.824 255.613C312.952 261.19 313.628 265.845 314.079 269.974C315.049 265.835 317.463 254.592 316.899 251.419Z" fill="black"/>
<path d="M377.238 256.063C375.185 259.884 373.065 263.749 370.798 267.295C370.245 268.14 369.67 268.964 369.106 269.71C367.719 266.197 366.388 262.684 365.192 259.137C364.501 257.11 363.847 255.079 363.23 253.044C362.925 252.023 362.621 251.013 362.35 250.003C362.08 248.993 361.798 247.928 361.606 247.115L351.704 248.96C351.963 250.31 352.211 251.353 352.527 252.517C352.843 253.681 353.159 254.713 353.497 255.866C354.174 258.061 354.925 260.232 355.753 262.376C357.39 266.632 359.246 270.806 361.313 274.881L361.696 275.65C361.889 276.06 362.111 276.456 362.362 276.835C362.684 277.349 363.062 277.828 363.489 278.263C364.134 278.889 364.901 279.381 365.745 279.712C366.731 280.086 367.799 280.207 368.847 280.063C369.641 279.952 370.406 279.695 371.102 279.306C371.99 278.817 372.787 278.186 373.459 277.439C374.4 276.401 375.217 275.263 375.895 274.047C376.527 272.949 377.023 271.851 377.576 270.753C379.449 266.532 380.918 262.151 381.963 257.666L377.238 256.063ZM367.087 271.796L367.335 271.675C367.144 271.84 366.974 271.906 367.087 271.796Z" fill="#71403E"/>
<path d="M317.068 281.249C314.442 281.477 311.799 281.477 309.173 281.249C308.132 281.166 307.11 280.933 306.139 280.557L305.948 280.459C305.948 280.228 305.948 279.997 305.948 279.734C305.948 279.163 306.049 278.559 306.128 277.944C306.308 276.704 306.534 275.408 306.805 274.102C307.346 271.489 308.034 268.832 308.733 266.175C309.433 263.518 310.267 260.85 311.079 258.182C311.891 255.514 312.737 252.835 313.549 250.244L303.929 247.093C302.006 252.579 300.372 258.156 299.034 263.803C298.346 266.647 297.748 269.524 297.297 272.488C297.072 273.97 296.891 275.485 296.79 277.066C296.733 277.857 296.699 278.669 296.711 279.514C296.711 279.921 296.711 280.382 296.711 280.81C296.742 281.532 296.867 282.248 297.083 282.94C297.548 284.434 298.458 285.76 299.699 286.75C300.672 287.52 301.78 288.112 302.97 288.495C304.755 289.045 306.613 289.337 308.485 289.363C311.66 289.389 314.829 289.11 317.948 288.528C323.848 287.443 329.638 285.848 335.248 283.763L333.861 279.086C328.305 280.088 322.7 280.81 317.068 281.249Z" fill="#71403E"/>
<path d="M307.673 236.597C303.737 237.761 297.715 252.78 297.715 252.78L312.952 263.397C312.952 263.397 319.809 250.552 318.162 245.611C316.459 240.44 312.151 235.269 307.673 236.597Z" fill="#CE6F64"/>
<path opacity="0.6" d="M307.673 236.597C303.737 237.761 297.715 252.78 297.715 252.78L312.952 263.397C312.952 263.397 319.809 250.552 318.162 245.611C316.459 240.44 312.151 235.269 307.673 236.597Z" fill="black"/>
<path d="M357.952 258.006C357.847 258.023 357.74 258.023 357.636 258.006L339.399 252.747H339.343L335.734 251.704C335.59 251.664 335.456 251.597 335.34 251.505C335.224 251.414 335.127 251.302 335.056 251.174C334.984 251.047 334.94 250.906 334.924 250.762C334.909 250.617 334.923 250.471 334.967 250.332C335.009 250.193 335.08 250.064 335.174 249.952C335.268 249.84 335.383 249.747 335.514 249.679C335.645 249.61 335.789 249.568 335.937 249.554C336.085 249.54 336.234 249.554 336.376 249.596L339.929 250.628H340.019L358.065 255.811L380.204 251.595C380.352 251.566 380.504 251.567 380.652 251.596C380.8 251.625 380.94 251.683 381.066 251.765C381.191 251.847 381.298 251.952 381.381 252.075C381.465 252.197 381.523 252.334 381.551 252.478C381.58 252.623 381.58 252.771 381.55 252.915C381.52 253.059 381.461 253.196 381.377 253.317C381.292 253.439 381.184 253.544 381.058 253.625C380.933 253.706 380.792 253.762 380.644 253.79L358.177 258.006C358.103 258.017 358.026 258.017 357.952 258.006Z" fill="#CE6F64"/>
<path opacity="0.2" d="M357.952 258.006C357.847 258.023 357.74 258.023 357.636 258.006L339.399 252.747H339.343L335.734 251.704C335.59 251.664 335.456 251.597 335.34 251.505C335.224 251.414 335.127 251.302 335.056 251.174C334.984 251.047 334.94 250.906 334.924 250.762C334.909 250.617 334.923 250.471 334.967 250.332C335.009 250.193 335.08 250.064 335.174 249.952C335.268 249.84 335.383 249.747 335.514 249.679C335.645 249.61 335.789 249.568 335.937 249.554C336.085 249.54 336.234 249.554 336.376 249.596L339.929 250.628H340.019L358.065 255.811L380.204 251.595C380.352 251.566 380.504 251.567 380.652 251.596C380.8 251.625 380.94 251.683 381.066 251.765C381.191 251.847 381.298 251.952 381.381 252.075C381.465 252.197 381.523 252.334 381.551 252.478C381.58 252.623 381.58 252.771 381.55 252.915C381.52 253.059 381.461 253.196 381.377 253.317C381.292 253.439 381.184 253.544 381.058 253.625C380.933 253.706 380.792 253.762 380.644 253.79L358.177 258.006C358.103 258.017 358.026 258.017 357.952 258.006Z" fill="black"/>
<path d="M375.601 256.596C377.044 255.311 377.143 253.13 375.823 251.725C374.503 250.321 372.262 250.224 370.82 251.509C369.377 252.795 369.277 254.975 370.598 256.38C371.918 257.784 374.158 257.881 375.601 256.596Z" fill="white"/>
<path d="M365.418 253.307C365.392 253.83 365.525 254.349 365.802 254.798C366.079 255.247 366.486 255.606 366.973 255.829C367.459 256.053 368.003 256.131 368.534 256.053C369.066 255.976 369.563 255.747 369.961 255.394C370.359 255.042 370.64 254.583 370.77 254.075C370.9 253.567 370.872 253.033 370.69 252.54C370.508 252.048 370.18 251.619 369.748 251.308C369.315 250.997 368.797 250.818 368.26 250.793C367.541 250.76 366.838 251.007 366.305 251.478C365.772 251.949 365.453 252.607 365.418 253.307Z" fill="white"/>
<path d="M359.971 255.931C360.248 256.559 360.711 257.093 361.3 257.464C361.89 257.836 362.58 258.028 363.282 258.017C363.984 258.005 364.667 257.791 365.244 257.401C365.82 257.012 366.265 256.464 366.521 255.827C366.777 255.191 366.833 254.494 366.682 253.827C366.531 253.159 366.179 252.551 365.672 252.078C365.164 251.606 364.524 251.291 363.832 251.173C363.14 251.056 362.428 251.142 361.786 251.419C360.933 251.785 360.263 252.465 359.922 253.311C359.582 254.156 359.599 255.098 359.971 255.931Z" fill="white"/>
<path d="M355.899 257.26C356.114 257.74 356.47 258.147 356.923 258.429C357.376 258.712 357.905 258.858 358.442 258.848C358.98 258.837 359.503 258.672 359.944 258.373C360.386 258.074 360.726 257.654 360.922 257.166C361.118 256.678 361.16 256.145 361.045 255.634C360.929 255.122 360.661 254.656 360.273 254.293C359.885 253.931 359.395 253.688 358.865 253.597C358.335 253.505 357.79 253.569 357.297 253.779C356.97 253.918 356.674 254.118 356.427 254.368C356.179 254.618 355.985 254.913 355.855 255.237C355.725 255.56 355.662 255.905 355.669 256.252C355.677 256.6 355.755 256.942 355.899 257.26Z" fill="white"/>
<path d="M351.173 254.208C350.784 254.774 350.576 255.44 350.575 256.122C350.574 256.804 350.781 257.47 351.169 258.037C351.558 258.604 352.11 259.047 352.757 259.309C353.403 259.57 354.115 259.64 354.802 259.508C355.489 259.376 356.12 259.049 356.616 258.568C357.112 258.086 357.45 257.473 357.588 256.805C357.726 256.136 357.658 255.443 357.391 254.813C357.125 254.183 356.672 253.644 356.091 253.264C355.704 253.011 355.27 252.835 354.814 252.746C354.358 252.656 353.888 252.656 353.431 252.743C352.974 252.831 352.54 253.005 352.152 253.257C351.765 253.508 351.432 253.831 351.173 254.208Z" fill="white"/>
<path d="M347.835 251.573C347.537 252.008 347.377 252.519 347.377 253.042C347.377 253.564 347.536 254.076 347.834 254.511C348.132 254.946 348.556 255.285 349.052 255.486C349.548 255.687 350.094 255.74 350.621 255.639C351.148 255.538 351.632 255.287 352.013 254.918C352.393 254.549 352.653 254.079 352.76 253.566C352.866 253.053 352.814 252.522 352.61 252.038C352.406 251.554 352.059 251.14 351.613 250.848C351.013 250.458 350.279 250.315 349.571 250.451C348.863 250.587 348.239 250.99 347.835 251.573Z" fill="white"/>
<path d="M341.779 251.068C341.687 251.746 341.803 252.436 342.114 253.05C342.424 253.664 342.915 254.174 343.524 254.516C344.132 254.859 344.832 255.017 345.533 254.973C346.234 254.928 346.906 254.682 347.464 254.265C348.022 253.848 348.44 253.28 348.665 252.632C348.891 251.984 348.914 251.285 348.732 250.624C348.549 249.963 348.169 249.37 347.64 248.919C347.112 248.469 346.457 248.181 345.76 248.092C344.827 247.977 343.886 248.225 343.14 248.782C342.394 249.339 341.905 250.161 341.779 251.068Z" fill="white"/>
<path d="M342.819 251.524C343.383 250.169 342.711 248.627 341.32 248.078C339.928 247.53 338.344 248.183 337.78 249.538C337.217 250.892 337.888 252.435 339.28 252.983C340.671 253.532 342.256 252.878 342.819 251.524Z" fill="white"/>
<path d="M354.399 251.419C354.008 251.985 353.798 252.65 353.795 253.332C353.793 254.014 353.998 254.681 354.385 255.249C354.772 255.817 355.323 256.261 355.969 256.524C356.615 256.788 357.327 256.858 358.014 256.728C358.702 256.598 359.334 256.272 359.831 255.792C360.328 255.311 360.668 254.698 360.807 254.03C360.947 253.362 360.879 252.669 360.614 252.038C360.349 251.407 359.897 250.867 359.316 250.486C358.931 250.233 358.497 250.056 358.041 249.966C357.585 249.876 357.116 249.874 356.659 249.961C356.202 250.047 355.768 250.221 355.38 250.471C354.992 250.721 354.659 251.043 354.399 251.419Z" fill="white"/>
<path d="M355.651 248.455C355.344 248.9 355.179 249.423 355.177 249.96C355.175 250.496 355.337 251.021 355.642 251.467C355.946 251.914 356.38 252.263 356.888 252.47C357.396 252.677 357.956 252.732 358.497 252.63C359.037 252.527 359.535 252.27 359.925 251.892C360.316 251.515 360.583 251.032 360.693 250.507C360.802 249.981 360.749 249.436 360.54 248.94C360.332 248.444 359.976 248.019 359.519 247.719C359.216 247.52 358.875 247.381 358.516 247.31C358.158 247.239 357.788 247.238 357.429 247.307C357.069 247.375 356.727 247.511 356.422 247.708C356.117 247.905 355.855 248.159 355.651 248.455Z" fill="white"/>
<path d="M353.553 245.929C353.274 246.323 353.122 246.789 353.117 247.267C353.111 247.745 353.252 248.214 353.521 248.614C353.79 249.013 354.176 249.326 354.629 249.511C355.082 249.697 355.581 249.746 356.063 249.654C356.545 249.562 356.988 249.332 357.335 248.993C357.682 248.655 357.917 248.223 358.011 247.754C358.105 247.285 358.053 246.799 357.861 246.358C357.67 245.918 357.348 245.543 356.937 245.282C356.397 244.939 355.742 244.815 355.11 244.936C354.478 245.057 353.919 245.413 353.553 245.929Z" fill="white"/>
<path d="M356.993 246.588C356.716 246.983 356.565 247.449 356.561 247.927C356.558 248.405 356.7 248.873 356.971 249.272C357.242 249.671 357.628 249.982 358.082 250.166C358.535 250.35 359.034 250.398 359.516 250.304C359.997 250.21 360.439 249.979 360.785 249.639C361.131 249.3 361.365 248.868 361.457 248.398C361.55 247.929 361.496 247.443 361.304 247.004C361.111 246.564 360.788 246.19 360.376 245.93C359.836 245.588 359.179 245.465 358.547 245.588C357.915 245.712 357.357 246.07 356.993 246.588Z" fill="white"/>
<path d="M372.41 249.223C372.137 249.617 371.989 250.08 371.987 250.555C371.985 251.03 372.128 251.495 372.398 251.89C372.667 252.286 373.052 252.594 373.503 252.777C373.953 252.959 374.449 253.006 374.928 252.913C375.406 252.82 375.845 252.59 376.189 252.254C376.533 251.917 376.766 251.488 376.859 251.022C376.952 250.555 376.9 250.073 376.711 249.635C376.521 249.198 376.202 248.825 375.794 248.565C375.253 248.223 374.597 248.1 373.964 248.224C373.332 248.347 372.774 248.705 372.41 249.223Z" fill="white"/>
<path d="M351.061 248.839C350.761 249.274 350.6 249.785 350.599 250.309C350.598 250.832 350.756 251.344 351.054 251.78C351.352 252.216 351.777 252.556 352.273 252.757C352.77 252.958 353.316 253.011 353.844 252.91C354.372 252.808 354.856 252.557 355.237 252.187C355.618 251.817 355.877 251.346 355.983 250.832C356.088 250.319 356.034 249.786 355.829 249.303C355.623 248.819 355.275 248.405 354.828 248.114C354.229 247.725 353.496 247.582 352.79 247.718C352.084 247.854 351.462 248.257 351.061 248.839Z" fill="white"/>
<path d="M345.004 248.334C344.915 249.009 345.033 249.696 345.343 250.306C345.654 250.917 346.143 251.424 346.75 251.763C347.356 252.103 348.053 252.261 348.751 252.215C349.449 252.17 350.118 251.925 350.673 251.51C351.228 251.095 351.644 250.53 351.87 249.885C352.095 249.24 352.118 248.544 351.938 247.886C351.757 247.228 351.381 246.637 350.855 246.187C350.33 245.737 349.679 245.449 348.986 245.359C348.523 245.298 348.053 245.328 347.603 245.445C347.152 245.562 346.73 245.765 346.36 246.041C345.99 246.318 345.68 246.662 345.447 247.056C345.215 247.449 345.064 247.884 345.004 248.334Z" fill="white"/>
<path d="M358.211 250.574C358.121 251.25 358.239 251.937 358.55 252.547C358.861 253.158 359.351 253.666 359.958 254.005C360.565 254.345 361.262 254.502 361.961 254.456C362.659 254.411 363.328 254.164 363.883 253.748C364.438 253.333 364.854 252.766 365.078 252.12C365.302 251.474 365.325 250.778 365.142 250.12C364.96 249.462 364.582 248.871 364.054 248.422C363.527 247.973 362.875 247.686 362.181 247.598C361.719 247.538 361.25 247.568 360.8 247.685C360.35 247.802 359.929 248.005 359.56 248.282C359.191 248.558 358.882 248.903 358.65 249.296C358.419 249.69 358.269 250.124 358.211 250.574Z" fill="white"/>
<path d="M362.317 249.871C362.225 250.547 362.341 251.234 362.65 251.845C362.959 252.457 363.447 252.966 364.053 253.307C364.659 253.649 365.355 253.808 366.054 253.764C366.753 253.72 367.423 253.476 367.979 253.062C368.535 252.648 368.952 252.082 369.179 251.437C369.405 250.792 369.43 250.096 369.25 249.438C369.07 248.779 368.693 248.187 368.168 247.737C367.643 247.286 366.992 246.997 366.298 246.907C365.366 246.788 364.425 247.033 363.679 247.589C362.933 248.144 362.443 248.965 362.317 249.871Z" fill="white"/>
<path d="M367.087 250.102C366.995 250.78 367.111 251.47 367.422 252.084C367.733 252.697 368.223 253.208 368.832 253.55C369.441 253.892 370.14 254.051 370.841 254.007C371.543 253.962 372.215 253.716 372.772 253.299C373.33 252.882 373.748 252.314 373.974 251.666C374.199 251.018 374.222 250.319 374.04 249.658C373.858 248.997 373.478 248.404 372.949 247.953C372.42 247.502 371.765 247.215 371.068 247.126C370.606 247.066 370.136 247.095 369.686 247.213C369.235 247.33 368.813 247.532 368.443 247.809C368.073 248.085 367.763 248.43 367.53 248.824C367.297 249.217 367.147 249.651 367.087 250.102Z" fill="white"/>
<path d="M374.159 251.331C374.08 251.842 374.16 252.365 374.387 252.831C374.615 253.298 374.98 253.689 375.436 253.953C375.893 254.217 376.419 254.342 376.949 254.314C377.479 254.285 377.989 254.104 378.412 253.793C378.836 253.481 379.155 253.054 379.328 252.566C379.502 252.078 379.522 251.55 379.386 251.051C379.251 250.551 378.965 250.102 378.566 249.761C378.168 249.42 377.674 249.202 377.147 249.136C376.453 249.045 375.749 249.224 375.189 249.635C374.63 250.047 374.259 250.656 374.159 251.331Z" fill="white"/>
<path d="M340.82 247.423C340.751 247.942 340.842 248.469 341.08 248.938C341.319 249.407 341.695 249.796 342.161 250.057C342.627 250.318 343.162 250.438 343.699 250.403C344.235 250.368 344.749 250.178 345.174 249.859C345.6 249.54 345.919 249.105 346.091 248.609C346.263 248.113 346.28 247.579 346.14 247.073C346 246.568 345.709 246.115 345.304 245.77C344.899 245.426 344.398 245.206 343.865 245.139C343.511 245.093 343.151 245.115 342.806 245.205C342.461 245.295 342.137 245.451 341.854 245.663C341.571 245.876 341.334 246.14 341.156 246.442C340.979 246.744 340.865 247.077 340.82 247.423Z" fill="white"/>
<path d="M336.049 250.64L338.26 305.875L372.805 307.467L380.373 252.682L376.674 253.384L370.076 254.647L366.264 255.372L359.835 256.59L357.952 256.953L356.113 256.426L349.831 254.614L346.109 253.538L339.67 251.683H339.658L336.049 250.64Z" fill="#E6E6E6"/>
<path d="M336.049 250.64L338.26 305.875L341.858 306.04L339.67 251.683H339.658L336.049 250.64Z" fill="#CE6F64"/>
<path d="M346.109 253.538L345.906 306.226L349.628 306.391L349.831 254.614L346.109 253.538Z" fill="#CE6F64"/>
<path d="M356.114 256.426L353.677 306.578L357.388 306.753L359.835 256.59L357.952 256.953L356.114 256.426Z" fill="#CE6F64"/>
<path d="M361.437 306.94L365.17 307.116L370.076 254.647L366.264 255.372L361.437 306.94Z" fill="#CE6F64"/>
<path d="M369.208 307.302L372.805 307.467L380.373 252.682L376.674 253.384L369.208 307.302Z" fill="#CE6F64"/>
<g opacity="0.2">
<path d="M336.049 250.64L338.26 305.875L341.858 306.04L339.67 251.683H339.658L336.049 250.64Z" fill="black"/>
<path d="M346.109 253.538L345.906 306.226L349.628 306.391L349.831 254.614L346.109 253.538Z" fill="black"/>
<path d="M356.114 256.425L353.677 306.577L357.388 306.753L359.835 256.59L357.952 256.952L356.114 256.425Z" fill="black"/>
<path d="M361.437 306.94L365.17 307.115L370.076 254.647L366.264 255.371L361.437 306.94Z" fill="black"/>
<path d="M369.208 307.302L372.805 307.467L380.373 252.682L376.674 253.384L369.208 307.302Z" fill="black"/>
</g>
<path d="M333.659 279.218L340.279 272.63L341.147 282.16C341.147 282.16 335.993 285.509 332.452 283.675L333.659 279.218Z" fill="#71403E"/>
<path d="M348.343 271.675L348.613 279.69L341.125 282.171L340.279 272.641L348.343 271.675Z" fill="#71403E"/>
<path d="M257.248 229.22C261.432 235.807 287.395 237.805 287.395 237.805L290.395 219.657C283.511 217.483 276.399 216.061 269.192 215.419C258.624 214.771 252.658 222.028 257.248 229.22Z" fill="#CE6F64"/>
<path opacity="0.2" d="M257.248 229.22C261.432 235.807 287.395 237.805 287.395 237.805L290.395 219.657C283.511 217.483 276.399 216.061 269.192 215.419C258.624 214.771 252.658 222.028 257.248 229.22Z" fill="black"/>
<path d="M269.147 215.419C269.147 215.419 282.59 238.102 280.425 284.356L236.553 290.856C235.233 284.345 234.466 251.737 223.143 221.82C227.849 220.187 232.66 218.855 237.545 217.834C243.699 216.566 249.924 215.646 256.188 215.079C260.51 214.867 264.843 214.981 269.147 215.419Z" fill="#CE6F64"/>
<path opacity="0.2" d="M269.147 215.419C269.147 215.419 282.59 238.102 280.425 284.356L236.553 290.856C235.233 284.345 234.466 251.737 223.143 221.82C227.849 220.187 232.66 218.855 237.545 217.834C243.699 216.566 249.924 215.646 256.188 215.079C260.51 214.867 264.843 214.981 269.147 215.419Z" fill="black"/>
<path d="M280.414 284.356C280.414 284.356 325.256 305.139 335.677 327.91C342.697 343.698 348.617 359.929 353.395 376.492L341.373 385.187C341.373 385.187 324.805 351.229 305.576 333.586C284.677 314.406 250.583 288.243 250.583 288.243L280.414 284.356Z" fill="#CE6F64"/>
<path d="M342.275 227.748L351.298 225.322L350.655 233.743C349.147 234.259 347.547 234.47 345.953 234.363C344.359 234.255 342.804 233.831 341.384 233.117L342.275 227.748Z" fill="#E4897B"/>
<path d="M357.399 228.133L357.692 233.765L350.677 233.743L351.331 225.322L357.399 228.133Z" fill="#E4897B"/>
<path opacity="0.3" d="M234.004 232.821C235.346 239.046 233.913 245.359 230.789 248.652C230.323 246.457 229.819 244.206 229.278 241.9L234.004 232.821Z" fill="black"/>
<path d="M236.192 197.128C238.278 202.793 241.12 213.322 237.534 217.834C237.534 217.834 240.105 223.543 251.248 221.864C260.147 220.524 256.177 215.079 256.177 215.079C249.252 214.508 248.666 209.655 249.128 204.945L236.192 197.128Z" fill="#E4897B"/>
<path d="M238.605 214.672C238.605 214.672 241.583 219.218 252.139 221.732C251.611 223.821 251.7 226.014 252.399 228.056C252.399 228.056 239.711 224.092 236.609 217.845L238.605 214.672Z" fill="white"/>
<path d="M256.56 226.65C256.56 226.65 254.868 223.126 252.139 221.732C253.335 219.668 254.18 215.397 252.398 213.75C253.725 213.864 255.037 214.11 256.312 214.486C256.312 214.486 258.974 217.999 256.56 226.65Z" fill="white"/>
<path d="M241.459 200.312L249.117 204.934C248.994 206.028 248.972 207.13 249.049 208.228C246.432 208.228 242.496 206.032 241.82 203.463C241.505 202.442 241.383 201.375 241.459 200.312Z" fill="#CE6F64"/>
<path d="M252.748 175.73C257.147 176.828 261.162 187.807 256.278 191.156C251.395 194.504 244.402 173.666 252.748 175.73Z" fill="#263238"/>
<path d="M233.936 188.136C235.718 196.162 236.338 200.949 241.188 204.495C248.496 209.809 258.196 204.583 258.917 196.195C259.572 188.641 256.549 176.784 247.899 174.764C245.992 174.31 243.999 174.338 242.107 174.846C240.215 175.353 238.488 176.322 237.089 177.662C235.691 179.002 234.667 180.667 234.115 182.5C233.563 184.333 233.501 186.273 233.936 188.136Z" fill="#E4897B"/>
<path d="M246.917 188.531C247.03 189.19 247.47 189.629 247.91 189.629C248.35 189.629 248.632 188.971 248.53 188.312C248.429 187.653 247.978 187.214 247.538 187.214C247.098 187.214 246.816 187.873 246.917 188.531Z" fill="#263238"/>
<path d="M254.587 187.4C254.688 188.059 255.128 188.498 255.579 188.498C256.03 188.498 256.29 187.84 256.188 187.181C256.087 186.522 255.647 186.083 255.207 186.083C254.767 186.083 254.485 186.742 254.587 187.4Z" fill="#263238"/>
<path d="M252.207 188.081C253.329 189.98 254.714 191.72 256.323 193.252C255.913 193.648 255.418 193.951 254.875 194.14C254.331 194.33 253.752 194.402 253.177 194.35L252.207 188.081Z" fill="#DE5753"/>
<path d="M250.481 196.524C249.729 196.534 248.982 196.397 248.285 196.122C247.588 195.847 246.954 195.438 246.421 194.921C246.398 194.903 246.38 194.88 246.367 194.854C246.355 194.828 246.348 194.799 246.348 194.77C246.348 194.742 246.354 194.713 246.366 194.687C246.379 194.661 246.397 194.637 246.419 194.619C246.442 194.6 246.468 194.586 246.497 194.579C246.525 194.571 246.555 194.569 246.584 194.574C246.614 194.579 246.641 194.59 246.666 194.606C246.69 194.623 246.711 194.644 246.726 194.669C247.344 195.241 248.092 195.665 248.908 195.907C249.724 196.149 250.587 196.202 251.429 196.063C251.455 196.058 251.482 196.059 251.507 196.065C251.533 196.071 251.557 196.082 251.579 196.097C251.6 196.113 251.617 196.132 251.63 196.155C251.644 196.177 251.652 196.202 251.654 196.228C251.661 196.278 251.647 196.33 251.615 196.371C251.584 196.412 251.537 196.439 251.485 196.447C251.153 196.499 250.818 196.524 250.481 196.524Z" fill="#263238"/>
<path d="M244.154 186.467C244.091 186.483 244.025 186.483 243.963 186.467C243.916 186.443 243.875 186.41 243.842 186.37C243.809 186.331 243.785 186.285 243.77 186.236C243.755 186.187 243.751 186.135 243.757 186.085C243.763 186.034 243.779 185.985 243.805 185.94C244.096 185.386 244.519 184.907 245.039 184.544C245.559 184.182 246.16 183.945 246.793 183.854C246.899 183.848 247.003 183.883 247.083 183.95C247.164 184.018 247.213 184.114 247.222 184.216C247.228 184.267 247.224 184.319 247.209 184.368C247.194 184.417 247.168 184.462 247.134 184.501C247.101 184.54 247.059 184.572 247.012 184.595C246.965 184.618 246.913 184.631 246.861 184.634C246.36 184.713 245.885 184.907 245.476 185.199C245.066 185.491 244.733 185.873 244.504 186.313C244.465 186.368 244.413 186.41 244.351 186.438C244.289 186.465 244.221 186.475 244.154 186.467Z" fill="#263238"/>
<path d="M257.485 184.337C257.419 184.339 257.354 184.324 257.295 184.296C257.236 184.267 257.185 184.225 257.147 184.173C256.873 183.76 256.502 183.416 256.064 183.17C255.627 182.924 255.136 182.782 254.632 182.756C254.578 182.759 254.524 182.752 254.474 182.734C254.423 182.716 254.377 182.688 254.338 182.652C254.299 182.616 254.268 182.573 254.246 182.524C254.225 182.476 254.214 182.425 254.214 182.372C254.214 182.268 254.255 182.168 254.329 182.092C254.402 182.017 254.502 181.972 254.609 181.966C255.247 181.993 255.87 182.166 256.427 182.471C256.983 182.776 257.458 183.205 257.812 183.723C257.857 183.78 257.884 183.849 257.89 183.921C257.896 183.993 257.881 184.066 257.847 184.13C257.813 184.194 257.761 184.248 257.697 184.284C257.633 184.321 257.559 184.339 257.485 184.337Z" fill="#263238"/>
<path d="M233.553 233.754C232.019 235.95 230.372 238.321 228.85 240.66C227.327 242.998 225.827 245.403 224.338 247.807C221.481 252.499 218.953 257.374 216.771 262.398C215.756 264.769 214.923 267.209 214.278 269.699C213.791 271.65 213.564 273.654 213.601 275.661C213.601 275.979 213.68 276.133 213.692 276.32C213.719 276.466 213.76 276.609 213.816 276.748C213.955 276.947 214.135 277.115 214.346 277.242C214.7 277.448 215.079 277.61 215.474 277.725C217.833 278.209 220.261 278.283 222.647 277.945L224.902 283.588C224.141 284.001 223.354 284.368 222.545 284.686C221.767 285.004 220.966 285.3 220.132 285.553C218.348 286.106 216.488 286.391 214.616 286.398C213.53 286.393 212.448 286.267 211.391 286.025C210.174 285.718 209.014 285.229 207.951 284.576C206.817 283.86 205.824 282.953 205.019 281.897C204.278 280.885 203.69 279.776 203.271 278.603C202.582 276.659 202.264 274.609 202.334 272.554C202.383 270.823 202.564 269.098 202.876 267.394C203.485 264.239 204.364 261.14 205.504 258.127C206.573 255.235 207.797 252.399 209.169 249.63C210.5 246.896 211.932 244.217 213.444 241.615C214.955 239.013 216.522 236.444 218.18 233.93C219.838 231.416 221.485 228.978 223.391 226.464L233.553 233.754Z" fill="#E4897B"/>
<path d="M221.147 277.966L230.169 276.506L225.489 285.706C225.489 285.706 218.88 285.509 218.022 282.413L221.147 277.966Z" fill="#E4897B"/>
<path d="M236.192 281.15L231.94 288.583L225.489 285.706L230.169 276.506L236.192 281.15Z" fill="#E4897B"/>
<path d="M225.658 189.432C230.011 195.756 234.241 199.444 237.692 198.621C241.143 197.798 241.019 190.255 238.211 183.832C236.102 179.002 241.041 179.935 247.391 179.605C254.519 179.243 259.188 173.589 256.662 169.34C257.147 170.273 245.327 170.438 248.767 166.343C242.147 165.53 225.883 168.352 225.083 179.726C220.402 180.11 222.455 184.798 225.658 189.432Z" fill="#263238"/>
<path d="M225.162 180.242C225.204 179.751 225.138 179.257 224.968 178.792C224.799 178.328 224.53 177.904 224.178 177.548C223.827 177.193 223.403 176.915 222.932 176.732C222.462 176.549 221.957 176.466 221.451 176.488C222.823 177.606 224.067 178.865 225.162 180.242Z" fill="#263238"/>
<path d="M231.579 197.622C232.966 199.185 234.933 200.149 237.049 200.301C239.857 200.488 240.681 197.907 239.417 195.624C238.29 193.56 235.459 190.991 232.865 191.891C232.306 192.098 231.808 192.437 231.418 192.878C231.027 193.32 230.756 193.849 230.628 194.418C230.5 194.987 230.52 195.578 230.686 196.137C230.853 196.697 231.159 197.207 231.579 197.622Z" fill="#E4897B"/>
<path d="M223.131 221.776C215.045 224.597 206.575 249.146 206.575 249.146L224.62 256.118C228.061 249.663 231.145 243.033 233.857 236.257C237.635 226.508 231.128 219.02 223.131 221.776Z" fill="#CE6F64"/>
<path opacity="0.2" d="M223.131 221.776C215.045 224.597 206.575 249.146 206.575 249.146L224.62 256.118C228.061 249.663 231.145 243.033 233.857 236.257C237.635 226.508 231.128 219.02 223.131 221.776Z" fill="black"/>
<path d="M351.196 395.431L357.783 390.534L347.801 374.428L341.203 379.324L351.196 395.431Z" fill="#E4897B"/>
<path d="M347.801 374.439L352.955 382.739L346.358 387.635L341.203 379.335L347.801 374.439Z" fill="#CE6F64"/>
<path d="M265.087 385.044L272.135 389.293L284.034 374.461L276.974 370.212L265.087 385.044Z" fill="#E4897B"/>
<path d="M284.023 374.472L277.899 382.113L271.357 377.216L276.974 370.212L284.023 374.472Z" fill="#CE6F64"/>
<path opacity="0.7" d="M280.414 284.356C280.414 284.356 325.256 305.139 335.677 327.91C342.697 343.698 348.617 359.929 353.395 376.492L341.373 385.187C341.373 385.187 324.805 351.229 305.576 333.586C284.677 314.406 250.583 288.243 250.583 288.243L280.414 284.356Z" fill="black"/>
<path d="M357.207 389.754L350.012 395.101C349.88 395.203 349.784 395.343 349.74 395.501C349.695 395.659 349.704 395.827 349.764 395.98L352.538 402.929C352.598 403.095 352.697 403.245 352.829 403.365C352.96 403.486 353.119 403.574 353.292 403.622C353.466 403.671 353.649 403.678 353.825 403.643C354.002 403.609 354.168 403.533 354.309 403.423C356.88 401.458 360.523 398.505 363.794 396.089C367.606 393.246 371.057 391.017 375.535 387.69C378.241 385.681 377.08 382.322 375.783 382.904C369.828 385.582 365.531 388.591 359.159 389.085C358.456 389.125 357.78 389.357 357.207 389.754Z" fill="#263238"/>
<path d="M358.448 390.237C358.394 390.236 358.342 390.217 358.301 390.183C358.279 390.15 358.267 390.112 358.267 390.073C358.267 390.034 358.279 389.995 358.301 389.963C358.493 389.579 360.219 386.219 361.335 386.098C361.441 386.087 361.548 386.103 361.645 386.146C361.742 386.188 361.826 386.255 361.888 386.34C362.004 386.475 362.085 386.635 362.125 386.807C362.164 386.979 362.16 387.158 362.113 387.328C361.831 388.514 359.767 389.656 358.561 390.215C358.546 390.229 358.527 390.238 358.507 390.241C358.488 390.245 358.467 390.244 358.448 390.237ZM361.369 386.483C360.771 386.537 359.643 388.261 358.91 389.612C360.523 388.788 361.561 387.921 361.719 387.251C361.752 387.136 361.756 387.014 361.728 386.897C361.7 386.779 361.643 386.671 361.561 386.581C361.548 386.543 361.522 386.51 361.487 386.488C361.452 386.466 361.41 386.456 361.369 386.461V386.483Z" fill="#CE6F64"/>
<path d="M358.448 390.238C358.411 390.24 358.375 390.231 358.343 390.214C358.311 390.196 358.285 390.17 358.267 390.139C358.2 390.007 356.508 386.845 358.2 385.879C358.651 385.615 358.922 385.725 359.079 385.879C359.756 386.516 359.181 389.173 358.617 390.15C358.6 390.178 358.575 390.202 358.545 390.217C358.515 390.233 358.482 390.24 358.448 390.238ZM358.696 386.098C358.59 386.111 358.49 386.149 358.403 386.208C357.275 386.856 358.076 388.799 358.403 389.612C358.888 388.514 359.17 386.527 358.764 386.142C358.745 386.123 358.722 386.108 358.696 386.098Z" fill="#CE6F64"/>
<path d="M341.102 386.186L354.41 376.558L352.482 372.089L337.876 381.806L341.102 386.186Z" fill="#CE6F64"/>
<path d="M272.654 388.503L264.951 383.859C264.806 383.775 264.637 383.739 264.469 383.755C264.3 383.771 264.142 383.838 264.015 383.947L258.376 388.964C258.24 389.077 258.133 389.221 258.065 389.382C257.997 389.544 257.97 389.719 257.986 389.893C258.001 390.067 258.059 390.234 258.154 390.382C258.249 390.53 258.38 390.654 258.534 390.743C261.342 392.378 262.808 393.707 266.429 395.475C273.602 398.911 274.549 403.544 281.496 403.544C284.88 403.544 286.605 400.865 285.241 400.437C276.906 397.802 276.714 395.661 273.963 390.04C273.688 389.415 273.234 388.881 272.654 388.503Z" fill="#263238"/>
<path d="M276.545 392.071C275.316 392.071 273.635 390.699 272.711 389.875C272.687 389.843 272.674 389.805 272.674 389.765C272.674 389.726 272.687 389.688 272.711 389.656C272.729 389.622 272.757 389.594 272.791 389.575C272.825 389.555 272.863 389.545 272.902 389.546C273.342 389.546 277.188 389.952 277.696 390.929C277.745 391.019 277.771 391.119 277.771 391.22C277.771 391.322 277.745 391.422 277.696 391.511C277.609 391.668 277.485 391.801 277.334 391.901C277.182 392 277.009 392.062 276.827 392.082L276.545 392.071ZM273.478 389.974C274.842 391.138 276.06 391.786 276.748 391.676C276.87 391.661 276.987 391.619 277.089 391.552C277.191 391.485 277.275 391.396 277.335 391.292C277.354 391.26 277.363 391.224 277.363 391.187C277.363 391.151 277.354 391.115 277.335 391.083C277.03 390.556 274.978 390.15 273.478 389.974Z" fill="#CE6F64"/>
<path d="M273.387 389.941C273.196 389.954 273.004 389.954 272.812 389.941C272.778 389.934 272.746 389.92 272.719 389.899C272.691 389.878 272.669 389.851 272.654 389.82C272.638 389.79 272.629 389.756 272.629 389.721C272.629 389.687 272.638 389.653 272.654 389.623C272.756 389.513 275.147 386.856 276.715 388.042C277.132 388.349 277.121 388.646 277.042 388.832C276.76 389.524 274.684 389.941 273.387 389.941ZM273.263 389.557C274.515 389.557 276.489 389.162 276.715 388.657C276.715 388.657 276.715 388.514 276.512 388.316C275.496 387.559 273.895 388.931 273.263 389.557Z" fill="#CE6F64"/>
<path d="M264.85 286.662C264.85 286.662 330.264 284.784 328.098 303.635C325.132 329.381 282.331 380.576 282.331 380.576L272.79 371.947C272.79 371.947 291.85 335.299 295.865 318.962C297.76 311.277 258.376 321.882 248.372 315.185C242.259 311.09 238.56 303.185 236.541 290.856L264.85 286.662Z" fill="#CE6F64"/>
<path opacity="0.6" d="M264.85 286.662C264.85 286.662 330.264 284.784 328.098 303.635C325.132 329.381 282.331 380.576 282.331 380.576L272.79 371.947C272.79 371.947 291.85 335.299 295.865 318.962C297.76 311.277 258.376 321.882 248.372 315.185C242.259 311.09 238.56 303.185 236.541 290.856L264.85 286.662Z" fill="black"/>
<path d="M270.94 372.704L283.075 382.113L287.361 377.864L273.444 368.62L270.94 372.704Z" fill="#CE6F64"/>
<path d="M173.857 281.469H198.387V278.537H173.857V281.469Z" fill="#263238"/>
<path d="M211.639 278.526H198.387V281.458H211.639V278.526Z" fill="#CE6F64"/>
<path d="M141.15 281.424C140.597 281.424 140.022 281.424 139.492 281.424C127.706 282.248 118.176 291.953 117.432 303.909C117.26 306.549 117.519 309.199 118.199 311.759C120.792 322.032 122.042 332.582 121.92 343.159V389.568C121.902 390.618 122.312 391.633 123.06 392.39C123.808 393.147 124.834 393.585 125.913 393.608H222.443V281.424H141.15Z" fill="#CE6F64"/>
<path opacity="0.4" d="M141.15 281.424C140.597 281.424 140.022 281.424 139.492 281.424C127.706 282.248 118.176 291.953 117.432 303.909C117.26 306.549 117.519 309.199 118.199 311.759C120.792 322.032 122.042 332.582 121.92 343.159V389.568C121.902 390.618 122.312 391.633 123.06 392.39C123.808 393.147 124.834 393.585 125.913 393.608H222.443V281.424H141.15Z" fill="white"/>
<path d="M246.218 305.535C246.218 291.657 234.658 280.524 220.774 281.48C208.989 282.303 199.47 292.008 198.714 303.965C198.548 306.604 198.807 309.253 199.481 311.815C202.084 322.086 203.338 332.636 203.214 343.215V389.623C203.193 390.672 203.6 391.687 204.347 392.444C205.093 393.202 206.117 393.64 207.195 393.663H237.647C238.181 393.653 238.709 393.541 239.199 393.332C239.689 393.124 240.132 392.823 240.503 392.448C240.873 392.073 241.165 391.63 241.36 391.145C241.555 390.661 241.65 390.143 241.639 389.623V341.447C241.554 331.526 242.79 321.635 245.316 312.023C245.909 309.909 246.212 307.727 246.218 305.535Z" fill="#CE6F64"/>
<path opacity="0.6" d="M246.218 305.535C246.218 291.657 234.658 280.524 220.774 281.48C208.989 282.303 199.47 292.008 198.714 303.965C198.548 306.604 198.807 309.253 199.481 311.815C202.084 322.086 203.338 332.636 203.214 343.215V389.623C203.193 390.672 203.6 391.687 204.347 392.444C205.093 393.202 206.117 393.64 207.195 393.663H237.647C238.181 393.653 238.709 393.541 239.199 393.332C239.689 393.124 240.132 392.823 240.503 392.448C240.873 392.073 241.165 391.63 241.36 391.145C241.555 390.661 241.65 390.143 241.639 389.623V341.447C241.554 331.526 242.79 321.635 245.316 312.023C245.909 309.909 246.212 307.727 246.218 305.535Z" fill="white"/>
</svg>
